<?xml version="1.0" encoding="UTF-8" standalone="no"?>
<!DOCTYPE svg PUBLIC "-//W3C//DTD SVG 1.1//EN"
 "http://www.w3.org/Graphics/SVG/1.1/DTD/svg11.dtd">
<!-- Generated by graphviz version 2.40.1 (20161225.0304)
 -->
<!-- Title: %3 Pages: 1 -->
<svg width="2383pt" height="476pt"
 viewBox="0.00 0.00 2382.50 476.00" xmlns="http://www.w3.org/2000/svg" xmlns:xlink="http://www.w3.org/1999/xlink">
<g id="graph0" class="graph" transform="scale(1 1) rotate(0) translate(4 472)">
<title>%3</title>
<polygon fill="#ffffff" stroke="transparent" points="-4,4 -4,-472 2378.5,-472 2378.5,4 -4,4"/>
<!-- [root] aws_autoscaling_group.demo (expand) -->
<g id="node1" class="node">
<title>[root] aws_autoscaling_group.demo (expand)</title>
<polygon fill="none" stroke="#000000" points="594.5,-324 367.5,-324 367.5,-288 594.5,-288 594.5,-324"/>
<text text-anchor="middle" x="481" y="-302.3" font-family="Times,serif" font-size="14.00" fill="#000000">aws_autoscaling_group.demo</text>
</g>
<!-- [root] aws_launch_configuration.demo (expand) -->
<g id="node5" class="node">
<title>[root] aws_launch_configuration.demo (expand)</title>
<polygon fill="none" stroke="#000000" points="751.5,-252 504.5,-252 504.5,-216 751.5,-216 751.5,-252"/>
<text text-anchor="middle" x="628" y="-230.3" font-family="Times,serif" font-size="14.00" fill="#000000">aws_launch_configuration.demo</text>
</g>
<!-- [root] aws_autoscaling_group.demo (expand)&#45;&gt;[root] aws_launch_configuration.demo (expand) -->
<g id="edge1" class="edge">
<title>[root] aws_autoscaling_group.demo (expand)&#45;&gt;[root] aws_launch_configuration.demo (expand)</title>
<path fill="none" stroke="#000000" d="M518.0943,-287.8314C537.4926,-278.3302 561.417,-266.6121 581.9862,-256.5374"/>
<polygon fill="#000000" stroke="#000000" points="583.7314,-259.5799 591.1724,-252.038 580.6522,-253.2935 583.7314,-259.5799"/>
</g>
<!-- [root] aws_lb_target_group.asg (expand) -->
<g id="node8" class="node">
<title>[root] aws_lb_target_group.asg (expand)</title>
<polygon fill="none" stroke="#000000" points="486,-252 290,-252 290,-216 486,-216 486,-252"/>
<text text-anchor="middle" x="388" y="-230.3" font-family="Times,serif" font-size="14.00" fill="#000000">aws_lb_target_group.asg</text>
</g>
<!-- [root] aws_autoscaling_group.demo (expand)&#45;&gt;[root] aws_lb_target_group.asg (expand) -->
<g id="edge2" class="edge">
<title>[root] aws_autoscaling_group.demo (expand)&#45;&gt;[root] aws_lb_target_group.asg (expand)</title>
<path fill="none" stroke="#000000" d="M457.5322,-287.8314C445.9673,-278.8779 431.8596,-267.9558 419.3817,-258.2955"/>
<polygon fill="#000000" stroke="#000000" points="421.5102,-255.5171 411.4603,-252.1628 417.225,-261.0521 421.5102,-255.5171"/>
</g>
<!-- [root] aws_subnet.public1 (expand) -->
<g id="node21" class="node">
<title>[root] aws_subnet.public1 (expand)</title>
<polygon fill="none" stroke="#000000" points="859,-180 701,-180 701,-144 859,-144 859,-180"/>
<text text-anchor="middle" x="780" y="-158.3" font-family="Times,serif" font-size="14.00" fill="#000000">aws_subnet.public1</text>
</g>
<!-- [root] aws_autoscaling_group.demo (expand)&#45;&gt;[root] aws_subnet.public1 (expand) -->
<g id="edge3" class="edge">
<title>[root] aws_autoscaling_group.demo (expand)&#45;&gt;[root] aws_subnet.public1 (expand)</title>
<path fill="none" stroke="#000000" d="M589.2707,-287.9622C665.3141,-274.8348 754.5886,-258.2999 761,-252 777.1244,-236.1559 781.226,-210.3151 781.6708,-190.3778"/>
<polygon fill="#000000" stroke="#000000" points="785.1703,-190.2694 781.6049,-180.2925 778.1704,-190.3152 785.1703,-190.2694"/>
</g>
<!-- [root] aws_subnet.public2 (expand) -->
<g id="node22" class="node">
<title>[root] aws_subnet.public2 (expand)</title>
<polygon fill="none" stroke="#000000" points="1035,-180 877,-180 877,-144 1035,-144 1035,-180"/>
<text text-anchor="middle" x="956" y="-158.3" font-family="Times,serif" font-size="14.00" fill="#000000">aws_subnet.public2</text>
</g>
<!-- [root] aws_autoscaling_group.demo (expand)&#45;&gt;[root] aws_subnet.public2 (expand) -->
<g id="edge4" class="edge">
<title>[root] aws_autoscaling_group.demo (expand)&#45;&gt;[root] aws_subnet.public2 (expand)</title>
<path fill="none" stroke="#000000" d="M590.9756,-287.9944C669.6123,-274.8369 764.6608,-258.2472 783,-252 796.4449,-247.42 866.6018,-210.1712 913.3419,-185.0517"/>
<polygon fill="#000000" stroke="#000000" points="915.2061,-188.0232 922.3539,-180.2027 911.8893,-181.8588 915.2061,-188.0232"/>
</g>
<!-- [root] aws_db_instance.default (expand) -->
<g id="node2" class="node">
<title>[root] aws_db_instance.default (expand)</title>
<polygon fill="none" stroke="#000000" points="2127.5,-324 1934.5,-324 1934.5,-288 2127.5,-288 2127.5,-324"/>
<text text-anchor="middle" x="2031" y="-302.3" font-family="Times,serif" font-size="14.00" fill="#000000">aws_db_instance.default</text>
</g>
<!-- [root] aws_db_subnet_group.selected (expand) -->
<g id="node3" class="node">
<title>[root] aws_db_subnet_group.selected (expand)</title>
<polygon fill="none" stroke="#000000" points="1988,-252 1748,-252 1748,-216 1988,-216 1988,-252"/>
<text text-anchor="middle" x="1868" y="-230.3" font-family="Times,serif" font-size="14.00" fill="#000000">aws_db_subnet_group.selected</text>
</g>
<!-- [root] aws_db_instance.default (expand)&#45;&gt;[root] aws_db_subnet_group.selected (expand) -->
<g id="edge5" class="edge">
<title>[root] aws_db_instance.default (expand)&#45;&gt;[root] aws_db_subnet_group.selected (expand)</title>
<path fill="none" stroke="#000000" d="M1989.8682,-287.8314C1968.0679,-278.2018 1941.1122,-266.295 1918.0996,-256.1299"/>
<polygon fill="#000000" stroke="#000000" points="1919.3976,-252.877 1908.836,-252.038 1916.5692,-259.2802 1919.3976,-252.877"/>
</g>
<!-- [root] var.sqlpassword -->
<g id="node30" class="node">
<title>[root] var.sqlpassword</title>
<polygon fill="none" stroke="#000000" points="1724,-252 1598,-252 1598,-216 1730,-216 1730,-246 1724,-252"/>
<polyline fill="none" stroke="#000000" points="1724,-252 1724,-246 "/>
<polyline fill="none" stroke="#000000" points="1730,-246 1724,-246 "/>
<text text-anchor="middle" x="1664" y="-230.3" font-family="Times,serif" font-size="14.00" fill="#000000">var.sqlpassword</text>
</g>
<!-- [root] aws_db_instance.default (expand)&#45;&gt;[root] var.sqlpassword -->
<g id="edge6" class="edge">
<title>[root] aws_db_instance.default (expand)&#45;&gt;[root] var.sqlpassword</title>
<path fill="none" stroke="#000000" d="M1934.4106,-289.4553C1879.9668,-279.8164 1810.4968,-266.998 1740.1422,-252.1927"/>
<polygon fill="#000000" stroke="#000000" points="1740.7185,-248.7372 1730.2105,-250.0905 1739.2689,-255.5854 1740.7185,-248.7372"/>
</g>
<!-- [root] var.sqlusername -->
<g id="node31" class="node">
<title>[root] var.sqlusername</title>
<polygon fill="none" stroke="#000000" points="2134,-252 2006,-252 2006,-216 2140,-216 2140,-246 2134,-252"/>
<polyline fill="none" stroke="#000000" points="2134,-252 2134,-246 "/>
<polyline fill="none" stroke="#000000" points="2140,-246 2134,-246 "/>
<text text-anchor="middle" x="2073" y="-230.3" font-family="Times,serif" font-size="14.00" fill="#000000">var.sqlusername</text>
</g>
<!-- [root] aws_db_instance.default (expand)&#45;&gt;[root] var.sqlusername -->
<g id="edge7" class="edge">
<title>[root] aws_db_instance.default (expand)&#45;&gt;[root] var.sqlusername</title>
<path fill="none" stroke="#000000" d="M2041.5984,-287.8314C2046.2877,-279.7925 2051.9028,-270.1666 2057.0798,-261.2918"/>
<polygon fill="#000000" stroke="#000000" points="2060.2434,-262.8146 2062.2589,-252.4133 2054.1969,-259.2875 2060.2434,-262.8146"/>
</g>
<!-- [root] aws_subnet.private1 (expand) -->
<g id="node19" class="node">
<title>[root] aws_subnet.private1 (expand)</title>
<polygon fill="none" stroke="#000000" points="1505.5,-180 1340.5,-180 1340.5,-144 1505.5,-144 1505.5,-180"/>
<text text-anchor="middle" x="1423" y="-158.3" font-family="Times,serif" font-size="14.00" fill="#000000">aws_subnet.private1</text>
</g>
<!-- [root] aws_db_subnet_group.selected (expand)&#45;&gt;[root] aws_subnet.private1 (expand) -->
<g id="edge8" class="edge">
<title>[root] aws_db_subnet_group.selected (expand)&#45;&gt;[root] aws_subnet.private1 (expand)</title>
<path fill="none" stroke="#000000" d="M1747.7109,-216.86C1681.9653,-207.1882 1598.8703,-194.4736 1515.6114,-180.0711"/>
<polygon fill="#000000" stroke="#000000" points="1516.1737,-176.6164 1505.722,-178.3525 1514.9751,-183.5131 1516.1737,-176.6164"/>
</g>
<!-- [root] aws_subnet.private2 (expand) -->
<g id="node20" class="node">
<title>[root] aws_subnet.private2 (expand)</title>
<polygon fill="none" stroke="#000000" points="1688.5,-180 1523.5,-180 1523.5,-144 1688.5,-144 1688.5,-180"/>
<text text-anchor="middle" x="1606" y="-158.3" font-family="Times,serif" font-size="14.00" fill="#000000">aws_subnet.private2</text>
</g>
<!-- [root] aws_db_subnet_group.selected (expand)&#45;&gt;[root] aws_subnet.private2 (expand) -->
<g id="edge9" class="edge">
<title>[root] aws_db_subnet_group.selected (expand)&#45;&gt;[root] aws_subnet.private2 (expand)</title>
<path fill="none" stroke="#000000" d="M1802.2245,-215.9243C1765.629,-205.8675 1719.916,-193.3052 1681.8209,-182.8363"/>
<polygon fill="#000000" stroke="#000000" points="1682.3725,-179.3582 1671.8025,-180.0831 1680.5176,-186.108 1682.3725,-179.3582"/>
</g>
<!-- [root] aws_internet_gateway.gw (expand) -->
<g id="node4" class="node">
<title>[root] aws_internet_gateway.gw (expand)</title>
<polygon fill="none" stroke="#000000" points="1301.5,-180 1100.5,-180 1100.5,-144 1301.5,-144 1301.5,-180"/>
<text text-anchor="middle" x="1201" y="-158.3" font-family="Times,serif" font-size="14.00" fill="#000000">aws_internet_gateway.gw</text>
</g>
<!-- [root] aws_vpc.demo (expand) -->
<g id="node23" class="node">
<title>[root] aws_vpc.demo (expand)</title>
<polygon fill="none" stroke="#000000" points="1069.5,-108 948.5,-108 948.5,-72 1069.5,-72 1069.5,-108"/>
<text text-anchor="middle" x="1009" y="-86.3" font-family="Times,serif" font-size="14.00" fill="#000000">aws_vpc.demo</text>
</g>
<!-- [root] aws_internet_gateway.gw (expand)&#45;&gt;[root] aws_vpc.demo (expand) -->
<g id="edge10" class="edge">
<title>[root] aws_internet_gateway.gw (expand)&#45;&gt;[root] aws_vpc.demo (expand)</title>
<path fill="none" stroke="#000000" d="M1152.5503,-143.8314C1126.4149,-134.0306 1093.9891,-121.8709 1066.5717,-111.5894"/>
<polygon fill="#000000" stroke="#000000" points="1067.6936,-108.2721 1057.1013,-108.038 1065.2357,-114.8264 1067.6936,-108.2721"/>
</g>
<!-- [root] aws_security_group.instance (expand) -->
<g id="node18" class="node">
<title>[root] aws_security_group.instance (expand)</title>
<polygon fill="none" stroke="#000000" points="644.5,-180 419.5,-180 419.5,-144 644.5,-144 644.5,-180"/>
<text text-anchor="middle" x="532" y="-158.3" font-family="Times,serif" font-size="14.00" fill="#000000">aws_security_group.instance</text>
</g>
<!-- [root] aws_launch_configuration.demo (expand)&#45;&gt;[root] aws_security_group.instance (expand) -->
<g id="edge11" class="edge">
<title>[root] aws_launch_configuration.demo (expand)&#45;&gt;[root] aws_security_group.instance (expand)</title>
<path fill="none" stroke="#000000" d="M603.7751,-215.8314C591.8372,-206.8779 577.2744,-195.9558 564.394,-186.2955"/>
<polygon fill="#000000" stroke="#000000" points="566.3171,-183.3629 556.2171,-180.1628 562.1171,-188.9629 566.3171,-183.3629"/>
</g>
<!-- [root] aws_lb.demo (expand) -->
<g id="node6" class="node">
<title>[root] aws_lb.demo (expand)</title>
<polygon fill="none" stroke="#000000" points="271.5,-252 162.5,-252 162.5,-216 271.5,-216 271.5,-252"/>
<text text-anchor="middle" x="217" y="-230.3" font-family="Times,serif" font-size="14.00" fill="#000000">aws_lb.demo</text>
</g>
<!-- [root] aws_security_group.alb (expand) -->
<g id="node15" class="node">
<title>[root] aws_security_group.alb (expand)</title>
<polygon fill="none" stroke="#000000" points="234,-180 48,-180 48,-144 234,-144 234,-180"/>
<text text-anchor="middle" x="141" y="-158.3" font-family="Times,serif" font-size="14.00" fill="#000000">aws_security_group.alb</text>
</g>
<!-- [root] aws_lb.demo (expand)&#45;&gt;[root] aws_security_group.alb (expand) -->
<g id="edge12" class="edge">
<title>[root] aws_lb.demo (expand)&#45;&gt;[root] aws_security_group.alb (expand)</title>
<path fill="none" stroke="#000000" d="M197.822,-215.8314C188.6412,-207.1337 177.4994,-196.5783 167.5224,-187.1265"/>
<polygon fill="#000000" stroke="#000000" points="169.8385,-184.4995 160.1719,-180.1628 165.0243,-189.5811 169.8385,-184.4995"/>
</g>
<!-- [root] aws_lb.demo (expand)&#45;&gt;[root] aws_subnet.public1 (expand) -->
<g id="edge13" class="edge">
<title>[root] aws_lb.demo (expand)&#45;&gt;[root] aws_subnet.public1 (expand)</title>
<path fill="none" stroke="#000000" d="M271.6614,-217.9369C274.8081,-217.2276 277.937,-216.5742 281,-216 444.2615,-185.3931 488.0618,-199.6596 653,-180 665.2137,-178.5442 678.069,-176.8787 690.7206,-175.1617"/>
<polygon fill="#000000" stroke="#000000" points="691.3762,-178.6046 700.8071,-173.7767 690.4239,-171.6697 691.3762,-178.6046"/>
</g>
<!-- [root] aws_lb.demo (expand)&#45;&gt;[root] aws_subnet.public2 (expand) -->
<g id="edge14" class="edge">
<title>[root] aws_lb.demo (expand)&#45;&gt;[root] aws_subnet.public2 (expand)</title>
<path fill="none" stroke="#000000" d="M271.6383,-217.8072C274.7909,-217.1309 277.9273,-216.5202 281,-216 535.4401,-172.9233 607.0661,-213.224 866.8204,-180.0354"/>
<polygon fill="#000000" stroke="#000000" points="867.4704,-183.4804 876.9347,-178.7183 866.5664,-176.539 867.4704,-183.4804"/>
</g>
<!-- [root] var.alb_name -->
<g id="node26" class="node">
<title>[root] var.alb_name</title>
<polygon fill="none" stroke="#000000" points="356.5,-180 251.5,-180 251.5,-144 362.5,-144 362.5,-174 356.5,-180"/>
<polyline fill="none" stroke="#000000" points="356.5,-180 356.5,-174 "/>
<polyline fill="none" stroke="#000000" points="362.5,-174 356.5,-174 "/>
<text text-anchor="middle" x="307" y="-158.3" font-family="Times,serif" font-size="14.00" fill="#000000">var.alb_name</text>
</g>
<!-- [root] aws_lb.demo (expand)&#45;&gt;[root] var.alb_name -->
<g id="edge15" class="edge">
<title>[root] aws_lb.demo (expand)&#45;&gt;[root] var.alb_name</title>
<path fill="none" stroke="#000000" d="M239.7108,-215.8314C250.796,-206.9632 264.2954,-196.1637 276.2852,-186.5718"/>
<polygon fill="#000000" stroke="#000000" points="278.6742,-189.1429 284.2965,-180.1628 274.3013,-183.6768 278.6742,-189.1429"/>
</g>
<!-- [root] aws_lb_listener.http (expand) -->
<g id="node7" class="node">
<title>[root] aws_lb_listener.http (expand)</title>
<polygon fill="none" stroke="#000000" points="349.5,-324 188.5,-324 188.5,-288 349.5,-288 349.5,-324"/>
<text text-anchor="middle" x="269" y="-302.3" font-family="Times,serif" font-size="14.00" fill="#000000">aws_lb_listener.http</text>
</g>
<!-- [root] aws_lb_listener.http (expand)&#45;&gt;[root] aws_lb.demo (expand) -->
<g id="edge16" class="edge">
<title>[root] aws_lb_listener.http (expand)&#45;&gt;[root] aws_lb.demo (expand)</title>
<path fill="none" stroke="#000000" d="M255.8782,-287.8314C249.9501,-279.6232 242.8271,-269.7606 236.3067,-260.7323"/>
<polygon fill="#000000" stroke="#000000" points="238.9908,-258.4708 230.2985,-252.4133 233.316,-262.5693 238.9908,-258.4708"/>
</g>
<!-- [root] aws_lb_listener.http (expand)&#45;&gt;[root] aws_lb_target_group.asg (expand) -->
<g id="edge17" class="edge">
<title>[root] aws_lb_listener.http (expand)&#45;&gt;[root] aws_lb_target_group.asg (expand)</title>
<path fill="none" stroke="#000000" d="M299.0287,-287.8314C314.2496,-278.6221 332.9128,-267.3301 349.2083,-257.4706"/>
<polygon fill="#000000" stroke="#000000" points="351.2369,-260.3341 357.9809,-252.1628 347.6132,-254.345 351.2369,-260.3341"/>
</g>
<!-- [root] aws_lb_target_group.asg (expand)&#45;&gt;[root] aws_vpc.demo (expand) -->
<g id="edge18" class="edge">
<title>[root] aws_lb_target_group.asg (expand)&#45;&gt;[root] aws_vpc.demo (expand)</title>
<path fill="none" stroke="#000000" d="M486.0718,-216.6568C555.132,-203.9947 637.8763,-187.7437 653,-180 673.9968,-169.2492 670.8324,-154.4104 692,-144 734.2769,-123.2078 858.6005,-106.3596 938.4069,-97.2928"/>
<polygon fill="#000000" stroke="#000000" points="938.8452,-100.7657 948.3926,-96.1724 938.0647,-93.8093 938.8452,-100.7657"/>
</g>
<!-- [root] aws_lb_target_group.asg (expand)&#45;&gt;[root] var.alb_name -->
<g id="edge19" class="edge">
<title>[root] aws_lb_target_group.asg (expand)&#45;&gt;[root] var.alb_name</title>
<path fill="none" stroke="#000000" d="M367.5603,-215.8314C357.6795,-207.0485 345.6676,-196.3712 334.955,-186.8489"/>
<polygon fill="#000000" stroke="#000000" points="337.2326,-184.1906 327.4332,-180.1628 332.582,-189.4224 337.2326,-184.1906"/>
</g>
<!-- [root] var.server_port -->
<g id="node29" class="node">
<title>[root] var.server_port</title>
<polygon fill="none" stroke="#000000" points="448,-108 328,-108 328,-72 454,-72 454,-102 448,-108"/>
<polyline fill="none" stroke="#000000" points="448,-108 448,-102 "/>
<polyline fill="none" stroke="#000000" points="454,-102 448,-102 "/>
<text text-anchor="middle" x="391" y="-86.3" font-family="Times,serif" font-size="14.00" fill="#000000">var.server_port</text>
</g>
<!-- [root] aws_lb_target_group.asg (expand)&#45;&gt;[root] var.server_port -->
<g id="edge20" class="edge">
<title>[root] aws_lb_target_group.asg (expand)&#45;&gt;[root] var.server_port</title>
<path fill="none" stroke="#000000" d="M388.38,-215.7623C388.8916,-191.201 389.8073,-147.2474 390.4093,-118.3541"/>
<polygon fill="#000000" stroke="#000000" points="393.914,-118.1604 390.6231,-108.0896 386.9155,-118.0145 393.914,-118.1604"/>
</g>
<!-- [root] aws_route.r (expand) -->
<g id="node9" class="node">
<title>[root] aws_route.r (expand)</title>
<polygon fill="none" stroke="#000000" points="1307.5,-324 1206.5,-324 1206.5,-288 1307.5,-288 1307.5,-324"/>
<text text-anchor="middle" x="1257" y="-302.3" font-family="Times,serif" font-size="14.00" fill="#000000">aws_route.r</text>
</g>
<!-- [root] aws_route.r (expand)&#45;&gt;[root] aws_internet_gateway.gw (expand) -->
<g id="edge21" class="edge">
<title>[root] aws_route.r (expand)&#45;&gt;[root] aws_internet_gateway.gw (expand)</title>
<path fill="none" stroke="#000000" d="M1249.9076,-287.7623C1240.2718,-262.9846 1222.9611,-218.4714 1211.731,-189.5939"/>
<polygon fill="#000000" stroke="#000000" points="1214.9214,-188.1411 1208.0349,-180.0896 1208.3974,-190.6783 1214.9214,-188.1411"/>
</g>
<!-- [root] aws_route_table.public (expand) -->
<g id="node10" class="node">
<title>[root] aws_route_table.public (expand)</title>
<polygon fill="none" stroke="#000000" points="1148,-252 966,-252 966,-216 1148,-216 1148,-252"/>
<text text-anchor="middle" x="1057" y="-230.3" font-family="Times,serif" font-size="14.00" fill="#000000">aws_route_table.public</text>
</g>
<!-- [root] aws_route.r (expand)&#45;&gt;[root] aws_route_table.public (expand) -->
<g id="edge22" class="edge">
<title>[root] aws_route.r (expand)&#45;&gt;[root] aws_route_table.public (expand)</title>
<path fill="none" stroke="#000000" d="M1206.7897,-287.9243C1179.4485,-278.0815 1145.4406,-265.8386 1116.7425,-255.5073"/>
<polygon fill="#000000" stroke="#000000" points="1117.8254,-252.1773 1107.2309,-252.0831 1115.4543,-258.7635 1117.8254,-252.1773"/>
</g>
<!-- [root] aws_route_table.public (expand)&#45;&gt;[root] aws_vpc.demo (expand) -->
<g id="edge23" class="edge">
<title>[root] aws_route_table.public (expand)&#45;&gt;[root] aws_vpc.demo (expand)</title>
<path fill="none" stroke="#000000" d="M1056.6499,-215.8471C1055.7742,-197.2571 1052.9363,-167.7946 1044,-144 1040.4434,-134.53 1035.0242,-125.0034 1029.5048,-116.6451"/>
<polygon fill="#000000" stroke="#000000" points="1032.3668,-114.6302 1023.7907,-108.4091 1026.6154,-118.6205 1032.3668,-114.6302"/>
</g>
<!-- [root] aws_route_table_association.private1 (expand) -->
<g id="node11" class="node">
<title>[root] aws_route_table_association.private1 (expand)</title>
<polygon fill="none" stroke="#000000" points="1612,-324 1326,-324 1326,-288 1612,-288 1612,-324"/>
<text text-anchor="middle" x="1469" y="-302.3" font-family="Times,serif" font-size="14.00" fill="#000000">aws_route_table_association.private1</text>
</g>
<!-- [root] aws_route_table_association.private1 (expand)&#45;&gt;[root] aws_subnet.private1 (expand) -->
<g id="edge24" class="edge">
<title>[root] aws_route_table_association.private1 (expand)&#45;&gt;[root] aws_subnet.private1 (expand)</title>
<path fill="none" stroke="#000000" d="M1463.1741,-287.7623C1455.2935,-263.0928 1441.1635,-218.8598 1431.9358,-189.9731"/>
<polygon fill="#000000" stroke="#000000" points="1435.1557,-188.5503 1428.7786,-180.0896 1428.4876,-190.6805 1435.1557,-188.5503"/>
</g>
<!-- [root] aws_route_table_association.private2 (expand) -->
<g id="node12" class="node">
<title>[root] aws_route_table_association.private2 (expand)</title>
<polygon fill="none" stroke="#000000" points="1916,-324 1630,-324 1630,-288 1916,-288 1916,-324"/>
<text text-anchor="middle" x="1773" y="-302.3" font-family="Times,serif" font-size="14.00" fill="#000000">aws_route_table_association.private2</text>
</g>
<!-- [root] aws_route_table_association.private2 (expand)&#45;&gt;[root] aws_subnet.private2 (expand) -->
<g id="edge25" class="edge">
<title>[root] aws_route_table_association.private2 (expand)&#45;&gt;[root] aws_subnet.private2 (expand)</title>
<path fill="none" stroke="#000000" d="M1673.6896,-287.9487C1636.2998,-278.9619 1600.0987,-266.8241 1589,-252 1575.548,-234.0327 1582.0985,-208.5175 1590.6833,-189.2401"/>
<polygon fill="#000000" stroke="#000000" points="1593.9154,-190.596 1595.122,-180.0701 1587.6147,-187.5461 1593.9154,-190.596"/>
</g>
<!-- [root] aws_route_table_association.public1 (expand) -->
<g id="node13" class="node">
<title>[root] aws_route_table_association.public1 (expand)</title>
<polygon fill="none" stroke="#000000" points="1188.5,-324 909.5,-324 909.5,-288 1188.5,-288 1188.5,-324"/>
<text text-anchor="middle" x="1049" y="-302.3" font-family="Times,serif" font-size="14.00" fill="#000000">aws_route_table_association.public1</text>
</g>
<!-- [root] aws_route_table_association.public1 (expand)&#45;&gt;[root] aws_route_table.public (expand) -->
<g id="edge26" class="edge">
<title>[root] aws_route_table_association.public1 (expand)&#45;&gt;[root] aws_route_table.public (expand)</title>
<path fill="none" stroke="#000000" d="M1051.0187,-287.8314C1051.8743,-280.131 1052.8917,-270.9743 1053.8426,-262.4166"/>
<polygon fill="#000000" stroke="#000000" points="1057.3283,-262.7386 1054.9541,-252.4133 1050.3711,-261.9656 1057.3283,-262.7386"/>
</g>
<!-- [root] aws_route_table_association.public1 (expand)&#45;&gt;[root] aws_subnet.public1 (expand) -->
<g id="edge27" class="edge">
<title>[root] aws_route_table_association.public1 (expand)&#45;&gt;[root] aws_subnet.public1 (expand)</title>
<path fill="none" stroke="#000000" d="M1015.2033,-287.9081C966.3818,-261.7732 876.1396,-213.4651 822.7507,-184.8851"/>
<polygon fill="#000000" stroke="#000000" points="824.3381,-181.765 813.87,-180.1311 821.0344,-187.9364 824.3381,-181.765"/>
</g>
<!-- [root] aws_route_table_association.public2 (expand) -->
<g id="node14" class="node">
<title>[root] aws_route_table_association.public2 (expand)</title>
<polygon fill="none" stroke="#000000" points="891.5,-324 612.5,-324 612.5,-288 891.5,-288 891.5,-324"/>
<text text-anchor="middle" x="752" y="-302.3" font-family="Times,serif" font-size="14.00" fill="#000000">aws_route_table_association.public2</text>
</g>
<!-- [root] aws_route_table_association.public2 (expand)&#45;&gt;[root] aws_route_table.public (expand) -->
<g id="edge28" class="edge">
<title>[root] aws_route_table_association.public2 (expand)&#45;&gt;[root] aws_route_table.public (expand)</title>
<path fill="none" stroke="#000000" d="M828.5707,-287.9243C871.7983,-277.7198 925.9537,-264.9355 970.684,-254.3762"/>
<polygon fill="#000000" stroke="#000000" points="971.734,-257.7246 980.6624,-252.0207 970.1257,-250.9119 971.734,-257.7246"/>
</g>
<!-- [root] aws_route_table_association.public2 (expand)&#45;&gt;[root] aws_subnet.public2 (expand) -->
<g id="edge29" class="edge">
<title>[root] aws_route_table_association.public2 (expand)&#45;&gt;[root] aws_subnet.public2 (expand)</title>
<path fill="none" stroke="#000000" d="M793.0596,-287.981C813.0608,-278.4419 837.0403,-265.8439 857,-252 884.6338,-232.8334 912.6759,-206.5598 931.8259,-187.3484"/>
<polygon fill="#000000" stroke="#000000" points="934.437,-189.6851 938.9602,-180.1043 929.4496,-184.7733 934.437,-189.6851"/>
</g>
<!-- [root] aws_security_group.alb (expand)&#45;&gt;[root] aws_vpc.demo (expand) -->
<g id="edge30" class="edge">
<title>[root] aws_security_group.alb (expand)&#45;&gt;[root] aws_vpc.demo (expand)</title>
<path fill="none" stroke="#000000" d="M234.222,-145.0149C236.8404,-144.6572 239.437,-144.3177 242,-144 259.1664,-141.8721 751.6119,-107.7717 938.2349,-94.8825"/>
<polygon fill="#000000" stroke="#000000" points="938.7512,-98.3553 948.4863,-94.1746 938.2689,-91.3719 938.7512,-98.3553"/>
</g>
<!-- [root] var.alb_security_group_name -->
<g id="node27" class="node">
<title>[root] var.alb_security_group_name</title>
<polygon fill="none" stroke="#000000" points="248.5,-108 27.5,-108 27.5,-72 254.5,-72 254.5,-102 248.5,-108"/>
<polyline fill="none" stroke="#000000" points="248.5,-108 248.5,-102 "/>
<polyline fill="none" stroke="#000000" points="254.5,-102 248.5,-102 "/>
<text text-anchor="middle" x="141" y="-86.3" font-family="Times,serif" font-size="14.00" fill="#000000">var.alb_security_group_name</text>
</g>
<!-- [root] aws_security_group.alb (expand)&#45;&gt;[root] var.alb_security_group_name -->
<g id="edge31" class="edge">
<title>[root] aws_security_group.alb (expand)&#45;&gt;[root] var.alb_security_group_name</title>
<path fill="none" stroke="#000000" d="M141,-143.8314C141,-136.131 141,-126.9743 141,-118.4166"/>
<polygon fill="#000000" stroke="#000000" points="144.5001,-118.4132 141,-108.4133 137.5001,-118.4133 144.5001,-118.4132"/>
</g>
<!-- [root] aws_security_group.demo (expand) -->
<g id="node16" class="node">
<title>[root] aws_security_group.demo (expand)</title>
<polygon fill="none" stroke="#000000" points="2361.5,-252 2158.5,-252 2158.5,-216 2361.5,-216 2361.5,-252"/>
<text text-anchor="middle" x="2260" y="-230.3" font-family="Times,serif" font-size="14.00" fill="#000000">aws_security_group.demo</text>
</g>
<!-- [root] aws_security_group.demo (expand)&#45;&gt;[root] aws_vpc.demo (expand) -->
<g id="edge32" class="edge">
<title>[root] aws_security_group.demo (expand)&#45;&gt;[root] aws_vpc.demo (expand)</title>
<path fill="none" stroke="#000000" d="M2158.3781,-217.5105C2155.216,-217.0007 2152.0839,-216.4962 2149,-216 1948.595,-183.7541 1899.5649,-167.9492 1698,-144 1472.8858,-117.2527 1204.7573,-100.5726 1079.7278,-93.669"/>
<polygon fill="#000000" stroke="#000000" points="1079.7031,-90.1625 1069.5265,-93.11 1079.32,-97.152 1079.7031,-90.1625"/>
</g>
<!-- [root] aws_security_group.demo_db (expand) -->
<g id="node17" class="node">
<title>[root] aws_security_group.demo_db (expand)</title>
<polygon fill="none" stroke="#000000" points="2374.5,-324 2145.5,-324 2145.5,-288 2374.5,-288 2374.5,-324"/>
<text text-anchor="middle" x="2260" y="-302.3" font-family="Times,serif" font-size="14.00" fill="#000000">aws_security_group.demo_db</text>
</g>
<!-- [root] aws_security_group.demo_db (expand)&#45;&gt;[root] aws_security_group.demo (expand) -->
<g id="edge33" class="edge">
<title>[root] aws_security_group.demo_db (expand)&#45;&gt;[root] aws_security_group.demo (expand)</title>
<path fill="none" stroke="#000000" d="M2260,-287.8314C2260,-280.131 2260,-270.9743 2260,-262.4166"/>
<polygon fill="#000000" stroke="#000000" points="2263.5001,-262.4132 2260,-252.4133 2256.5001,-262.4133 2263.5001,-262.4132"/>
</g>
<!-- [root] aws_security_group.instance (expand)&#45;&gt;[root] aws_vpc.demo (expand) -->
<g id="edge34" class="edge">
<title>[root] aws_security_group.instance (expand)&#45;&gt;[root] aws_vpc.demo (expand)</title>
<path fill="none" stroke="#000000" d="M644.7402,-144.9826C735.6926,-131.2539 860.8215,-112.3666 938.224,-100.6832"/>
<polygon fill="#000000" stroke="#000000" points="938.988,-104.1076 948.3536,-99.1542 937.9432,-97.186 938.988,-104.1076"/>
</g>
<!-- [root] var.instance_security_group_name -->
<g id="node28" class="node">
<title>[root] var.instance_security_group_name</title>
<polygon fill="none" stroke="#000000" points="732,-108 472,-108 472,-72 738,-72 738,-102 732,-108"/>
<polyline fill="none" stroke="#000000" points="732,-108 732,-102 "/>
<polyline fill="none" stroke="#000000" points="738,-102 732,-102 "/>
<text text-anchor="middle" x="605" y="-86.3" font-family="Times,serif" font-size="14.00" fill="#000000">var.instance_security_group_name</text>
</g>
<!-- [root] aws_security_group.instance (expand)&#45;&gt;[root] var.instance_security_group_name -->
<g id="edge35" class="edge">
<title>[root] aws_security_group.instance (expand)&#45;&gt;[root] var.instance_security_group_name</title>
<path fill="none" stroke="#000000" d="M550.421,-143.8314C559.1529,-135.219 569.7317,-124.7851 579.2423,-115.4048"/>
<polygon fill="#000000" stroke="#000000" points="581.923,-117.6769 586.5849,-108.1628 577.0075,-112.6931 581.923,-117.6769"/>
</g>
<!-- [root] aws_security_group.instance (expand)&#45;&gt;[root] var.server_port -->
<g id="edge36" class="edge">
<title>[root] aws_security_group.instance (expand)&#45;&gt;[root] var.server_port</title>
<path fill="none" stroke="#000000" d="M496.4197,-143.8314C477.9675,-134.4089 455.2455,-122.8062 435.627,-112.7883"/>
<polygon fill="#000000" stroke="#000000" points="437.0667,-109.5935 426.5689,-108.1628 433.8832,-115.8278 437.0667,-109.5935"/>
</g>
<!-- [root] aws_subnet.private1 (expand)&#45;&gt;[root] aws_vpc.demo (expand) -->
<g id="edge37" class="edge">
<title>[root] aws_subnet.private1 (expand)&#45;&gt;[root] aws_vpc.demo (expand)</title>
<path fill="none" stroke="#000000" d="M1340.2159,-147.6028C1263.9288,-134.3354 1151.9237,-114.8563 1079.7239,-102.2998"/>
<polygon fill="#000000" stroke="#000000" points="1080.2601,-98.8406 1069.8082,-100.5753 1079.0606,-105.7371 1080.2601,-98.8406"/>
</g>
<!-- [root] aws_subnet.private2 (expand)&#45;&gt;[root] aws_vpc.demo (expand) -->
<g id="edge38" class="edge">
<title>[root] aws_subnet.private2 (expand)&#45;&gt;[root] aws_vpc.demo (expand)</title>
<path fill="none" stroke="#000000" d="M1523.2281,-145.303C1520.4553,-144.8473 1517.7067,-144.4113 1515,-144 1360.4138,-120.5102 1177.7223,-103.6895 1079.6744,-95.544"/>
<polygon fill="#000000" stroke="#000000" points="1079.8419,-92.046 1069.5879,-94.7119 1079.2663,-99.0223 1079.8419,-92.046"/>
</g>
<!-- [root] aws_subnet.public1 (expand)&#45;&gt;[root] aws_vpc.demo (expand) -->
<g id="edge39" class="edge">
<title>[root] aws_subnet.public1 (expand)&#45;&gt;[root] aws_vpc.demo (expand)</title>
<path fill="none" stroke="#000000" d="M837.4908,-143.9243C869.2048,-133.9531 908.7527,-121.5188 941.8775,-111.104"/>
<polygon fill="#000000" stroke="#000000" points="942.9958,-114.4214 951.4856,-108.0831 940.8962,-107.7437 942.9958,-114.4214"/>
</g>
<!-- [root] aws_subnet.public2 (expand)&#45;&gt;[root] aws_vpc.demo (expand) -->
<g id="edge40" class="edge">
<title>[root] aws_subnet.public2 (expand)&#45;&gt;[root] aws_vpc.demo (expand)</title>
<path fill="none" stroke="#000000" d="M969.3741,-143.8314C975.4162,-135.6232 982.6763,-125.7606 989.3221,-116.7323"/>
<polygon fill="#000000" stroke="#000000" points="992.3363,-118.5415 995.4458,-108.4133 986.6989,-114.3918 992.3363,-118.5415"/>
</g>
<!-- [root] provider[&quot;registry.terraform.io/hashicorp/aws&quot;] -->
<g id="node25" class="node">
<title>[root] provider[&quot;registry.terraform.io/hashicorp/aws&quot;]</title>
<polygon fill="none" stroke="#000000" points="1009,-36 681.5599,-18 1009,0 1336.4401,-18 1009,-36"/>
<text text-anchor="middle" x="1009" y="-14.3" font-family="Times,serif" font-size="14.00" fill="#000000">provider[&quot;registry.terraform.io/hashicorp/aws&quot;]</text>
</g>
<!-- [root] aws_vpc.demo (expand)&#45;&gt;[root] provider[&quot;registry.terraform.io/hashicorp/aws&quot;] -->
<g id="edge41" class="edge">
<title>[root] aws_vpc.demo (expand)&#45;&gt;[root] provider[&quot;registry.terraform.io/hashicorp/aws&quot;]</title>
<path fill="none" stroke="#000000" d="M1009,-71.8314C1009,-64.131 1009,-54.9743 1009,-46.4166"/>
<polygon fill="#000000" stroke="#000000" points="1012.5001,-46.4132 1009,-36.4133 1005.5001,-46.4133 1012.5001,-46.4132"/>
</g>
<!-- [root] output.alb_dns_name -->
<g id="node24" class="node">
<title>[root] output.alb_dns_name</title>
<polygon fill="none" stroke="#000000" points="164,-324 0,-324 0,-288 170,-288 170,-318 164,-324"/>
<polyline fill="none" stroke="#000000" points="164,-324 164,-318 "/>
<polyline fill="none" stroke="#000000" points="170,-318 164,-318 "/>
<text text-anchor="middle" x="85" y="-302.3" font-family="Times,serif" font-size="14.00" fill="#000000">output.alb_dns_name</text>
</g>
<!-- [root] output.alb_dns_name&#45;&gt;[root] aws_lb.demo (expand) -->
<g id="edge52" class="edge">
<title>[root] output.alb_dns_name&#45;&gt;[root] aws_lb.demo (expand)</title>
<path fill="none" stroke="#000000" d="M118.3092,-287.8314C135.4273,-278.4942 156.4706,-267.016 174.7222,-257.0606"/>
<polygon fill="#000000" stroke="#000000" points="176.5985,-260.024 183.7015,-252.1628 173.2465,-253.8788 176.5985,-260.024"/>
</g>
<!-- [root] meta.count&#45;boundary (EachMode fixup) -->
<g id="node32" class="node">
<title>[root] meta.count&#45;boundary (EachMode fixup)</title>
<ellipse fill="none" stroke="#000000" cx="933" cy="-378" rx="224.4604" ry="18"/>
<text text-anchor="middle" x="933" y="-374.3" font-family="Times,serif" font-size="14.00" fill="#000000">[root] meta.count&#45;boundary (EachMode fixup)</text>
</g>
<!-- [root] meta.count&#45;boundary (EachMode fixup)&#45;&gt;[root] aws_autoscaling_group.demo (expand) -->
<g id="edge42" class="edge">
<title>[root] meta.count&#45;boundary (EachMode fixup)&#45;&gt;[root] aws_autoscaling_group.demo (expand)</title>
<path fill="none" stroke="#000000" d="M831.8438,-361.8866C764.4884,-351.1574 675.5737,-336.994 604.1098,-325.6104"/>
<polygon fill="#000000" stroke="#000000" points="604.5719,-322.14 594.1458,-324.0232 603.4707,-329.0528 604.5719,-322.14"/>
</g>
<!-- [root] meta.count&#45;boundary (EachMode fixup)&#45;&gt;[root] aws_db_instance.default (expand) -->
<g id="edge43" class="edge">
<title>[root] meta.count&#45;boundary (EachMode fixup)&#45;&gt;[root] aws_db_instance.default (expand)</title>
<path fill="none" stroke="#000000" d="M1090.5628,-365.1891C1115.7834,-363.3225 1141.6028,-361.5206 1166,-360 1499.7669,-339.1969 1587.5405,-359.9225 1924.2689,-323.9948"/>
<polygon fill="#000000" stroke="#000000" points="1924.7362,-327.4648 1934.3044,-322.9152 1923.9874,-320.505 1924.7362,-327.4648"/>
</g>
<!-- [root] meta.count&#45;boundary (EachMode fixup)&#45;&gt;[root] aws_lb_listener.http (expand) -->
<g id="edge44" class="edge">
<title>[root] meta.count&#45;boundary (EachMode fixup)&#45;&gt;[root] aws_lb_listener.http (expand)</title>
<path fill="none" stroke="#000000" d="M759.7581,-366.537C648.0159,-357.9903 499.432,-344.4785 359.9675,-324.2192"/>
<polygon fill="#000000" stroke="#000000" points="360.3445,-320.7371 349.9424,-322.7488 359.3287,-327.663 360.3445,-320.7371"/>
</g>
<!-- [root] meta.count&#45;boundary (EachMode fixup)&#45;&gt;[root] aws_route.r (expand) -->
<g id="edge45" class="edge">
<title>[root] meta.count&#45;boundary (EachMode fixup)&#45;&gt;[root] aws_route.r (expand)</title>
<path fill="none" stroke="#000000" d="M1024.5501,-361.5686C1073.2209,-352.3059 1134.211,-339.8656 1196.2699,-324.3401"/>
<polygon fill="#000000" stroke="#000000" points="1197.3994,-327.6648 1206.2375,-321.8219 1195.6848,-320.8781 1197.3994,-327.6648"/>
</g>
<!-- [root] meta.count&#45;boundary (EachMode fixup)&#45;&gt;[root] aws_route_table_association.private1 (expand) -->
<g id="edge46" class="edge">
<title>[root] meta.count&#45;boundary (EachMode fixup)&#45;&gt;[root] aws_route_table_association.private1 (expand)</title>
<path fill="none" stroke="#000000" d="M1048.3146,-362.51C1129.3423,-351.6257 1238.3134,-336.9877 1325.0453,-325.3372"/>
<polygon fill="#000000" stroke="#000000" points="1325.5261,-328.8041 1334.9711,-324.0039 1324.5942,-321.8664 1325.5261,-328.8041"/>
</g>
<!-- [root] meta.count&#45;boundary (EachMode fixup)&#45;&gt;[root] aws_route_table_association.private2 (expand) -->
<g id="edge47" class="edge">
<title>[root] meta.count&#45;boundary (EachMode fixup)&#45;&gt;[root] aws_route_table_association.private2 (expand)</title>
<path fill="none" stroke="#000000" d="M1094.5133,-365.4847C1277.0664,-351.3167 1556.2676,-329.5716 1619.8435,-324.0246"/>
<polygon fill="#000000" stroke="#000000" points="1620.1698,-327.5094 1629.811,-323.1165 1619.5346,-320.5383 1620.1698,-327.5094"/>
</g>
<!-- [root] meta.count&#45;boundary (EachMode fixup)&#45;&gt;[root] aws_route_table_association.public1 (expand) -->
<g id="edge48" class="edge">
<title>[root] meta.count&#45;boundary (EachMode fixup)&#45;&gt;[root] aws_route_table_association.public1 (expand)</title>
<path fill="none" stroke="#000000" d="M961.9725,-360.0171C976.9204,-350.7391 995.3341,-339.3099 1011.3686,-329.3574"/>
<polygon fill="#000000" stroke="#000000" points="1013.3442,-332.2506 1019.9948,-324.0032 1009.6526,-326.3031 1013.3442,-332.2506"/>
</g>
<!-- [root] meta.count&#45;boundary (EachMode fixup)&#45;&gt;[root] aws_route_table_association.public2 (expand) -->
<g id="edge49" class="edge">
<title>[root] meta.count&#45;boundary (EachMode fixup)&#45;&gt;[root] aws_route_table_association.public2 (expand)</title>
<path fill="none" stroke="#000000" d="M888.2584,-360.2022C863.6441,-350.4109 832.9013,-338.1817 806.8497,-327.8187"/>
<polygon fill="#000000" stroke="#000000" points="808.0696,-324.5372 797.4841,-324.0931 805.4822,-331.0415 808.0696,-324.5372"/>
</g>
<!-- [root] meta.count&#45;boundary (EachMode fixup)&#45;&gt;[root] aws_security_group.demo_db (expand) -->
<g id="edge50" class="edge">
<title>[root] meta.count&#45;boundary (EachMode fixup)&#45;&gt;[root] aws_security_group.demo_db (expand)</title>
<path fill="none" stroke="#000000" d="M1089.2942,-365.0595C1114.9143,-363.1874 1141.1902,-361.4177 1166,-360 1593.7804,-335.5561 1705.2069,-362.8898 2135.2534,-324.1035"/>
<polygon fill="#000000" stroke="#000000" points="2135.8294,-327.5656 2145.4715,-323.1749 2135.1958,-320.5944 2135.8294,-327.5656"/>
</g>
<!-- [root] meta.count&#45;boundary (EachMode fixup)&#45;&gt;[root] output.alb_dns_name -->
<g id="edge51" class="edge">
<title>[root] meta.count&#45;boundary (EachMode fixup)&#45;&gt;[root] output.alb_dns_name</title>
<path fill="none" stroke="#000000" d="M731.5301,-370.0224C581.8889,-362.5626 372.6962,-348.9123 180.2572,-324.0804"/>
<polygon fill="#000000" stroke="#000000" points="180.6033,-320.596 170.235,-322.775 179.6991,-327.5374 180.6033,-320.596"/>
</g>
<!-- [root] provider[&quot;registry.terraform.io/hashicorp/aws&quot;] (close) -->
<g id="node33" class="node">
<title>[root] provider[&quot;registry.terraform.io/hashicorp/aws&quot;] (close)</title>
<ellipse fill="none" stroke="#000000" cx="1469" cy="-378" rx="293.548" ry="18"/>
<text text-anchor="middle" x="1469" y="-374.3" font-family="Times,serif" font-size="14.00" fill="#000000">[root] provider[&quot;registry.terraform.io/hashicorp/aws&quot;] (close)</text>
</g>
<!-- [root] provider[&quot;registry.terraform.io/hashicorp/aws&quot;] (close)&#45;&gt;[root] aws_autoscaling_group.demo (expand) -->
<g id="edge53" class="edge">
<title>[root] provider[&quot;registry.terraform.io/hashicorp/aws&quot;] (close)&#45;&gt;[root] aws_autoscaling_group.demo (expand)</title>
<path fill="none" stroke="#000000" d="M1259.2661,-365.3661C1027.3356,-351.3324 677.5669,-329.96 604.6586,-323.9862"/>
<polygon fill="#000000" stroke="#000000" points="604.8792,-320.492 594.6057,-323.0816 604.2518,-327.4638 604.8792,-320.492"/>
</g>
<!-- [root] provider[&quot;registry.terraform.io/hashicorp/aws&quot;] (close)&#45;&gt;[root] aws_db_instance.default (expand) -->
<g id="edge54" class="edge">
<title>[root] provider[&quot;registry.terraform.io/hashicorp/aws&quot;] (close)&#45;&gt;[root] aws_db_instance.default (expand)</title>
<path fill="none" stroke="#000000" d="M1616.594,-362.4264C1703.2826,-352.8204 1815.2122,-339.629 1924.0823,-324.0942"/>
<polygon fill="#000000" stroke="#000000" points="1924.8674,-327.5175 1934.2688,-322.6325 1923.873,-320.5885 1924.8674,-327.5175"/>
</g>
<!-- [root] provider[&quot;registry.terraform.io/hashicorp/aws&quot;] (close)&#45;&gt;[root] aws_lb_listener.http (expand) -->
<g id="edge55" class="edge">
<title>[root] provider[&quot;registry.terraform.io/hashicorp/aws&quot;] (close)&#45;&gt;[root] aws_lb_listener.http (expand)</title>
<path fill="none" stroke="#000000" d="M1261.2067,-365.2475C1229.3245,-363.409 1196.7861,-361.6002 1166,-360 810.3476,-341.5141 716.5279,-367.2743 360.0046,-324.1491"/>
<polygon fill="#000000" stroke="#000000" points="360.2695,-320.6555 349.9194,-322.9193 359.4222,-327.6041 360.2695,-320.6555"/>
</g>
<!-- [root] provider[&quot;registry.terraform.io/hashicorp/aws&quot;] (close)&#45;&gt;[root] aws_route.r (expand) -->
<g id="edge56" class="edge">
<title>[root] provider[&quot;registry.terraform.io/hashicorp/aws&quot;] (close)&#45;&gt;[root] aws_route.r (expand)</title>
<path fill="none" stroke="#000000" d="M1416.5955,-360.2022C1386.4818,-349.975 1348.5367,-337.0879 1317.2019,-326.4459"/>
<polygon fill="#000000" stroke="#000000" points="1318.3,-323.1226 1307.7056,-323.2208 1316.0488,-329.7507 1318.3,-323.1226"/>
</g>
<!-- [root] provider[&quot;registry.terraform.io/hashicorp/aws&quot;] (close)&#45;&gt;[root] aws_route_table_association.private1 (expand) -->
<g id="edge57" class="edge">
<title>[root] provider[&quot;registry.terraform.io/hashicorp/aws&quot;] (close)&#45;&gt;[root] aws_route_table_association.private1 (expand)</title>
<path fill="none" stroke="#000000" d="M1469,-359.8314C1469,-352.131 1469,-342.9743 1469,-334.4166"/>
<polygon fill="#000000" stroke="#000000" points="1472.5001,-334.4132 1469,-324.4133 1465.5001,-334.4133 1472.5001,-334.4132"/>
</g>
<!-- [root] provider[&quot;registry.terraform.io/hashicorp/aws&quot;] (close)&#45;&gt;[root] aws_route_table_association.private2 (expand) -->
<g id="edge58" class="edge">
<title>[root] provider[&quot;registry.terraform.io/hashicorp/aws&quot;] (close)&#45;&gt;[root] aws_route_table_association.private2 (expand)</title>
<path fill="none" stroke="#000000" d="M1542.5899,-360.5708C1586.1367,-350.2571 1641.5074,-337.143 1687.0542,-326.3556"/>
<polygon fill="#000000" stroke="#000000" points="1687.9889,-329.7311 1696.9131,-324.0206 1686.3756,-322.9195 1687.9889,-329.7311"/>
</g>
<!-- [root] provider[&quot;registry.terraform.io/hashicorp/aws&quot;] (close)&#45;&gt;[root] aws_route_table_association.public1 (expand) -->
<g id="edge59" class="edge">
<title>[root] provider[&quot;registry.terraform.io/hashicorp/aws&quot;] (close)&#45;&gt;[root] aws_route_table_association.public1 (expand)</title>
<path fill="none" stroke="#000000" d="M1369.9977,-361.0282C1308.4179,-350.4716 1228.9684,-336.8517 1164.5188,-325.8032"/>
<polygon fill="#000000" stroke="#000000" points="1164.7565,-322.293 1154.3089,-324.0529 1163.5737,-329.1923 1164.7565,-322.293"/>
</g>
<!-- [root] provider[&quot;registry.terraform.io/hashicorp/aws&quot;] (close)&#45;&gt;[root] aws_route_table_association.public2 (expand) -->
<g id="edge60" class="edge">
<title>[root] provider[&quot;registry.terraform.io/hashicorp/aws&quot;] (close)&#45;&gt;[root] aws_route_table_association.public2 (expand)</title>
<path fill="none" stroke="#000000" d="M1301.4352,-363.1974C1190.9208,-353.164 1042.6904,-339.1939 901.7135,-324.0622"/>
<polygon fill="#000000" stroke="#000000" points="901.8935,-320.5614 891.5763,-322.9707 901.1441,-327.5212 901.8935,-320.5614"/>
</g>
<!-- [root] provider[&quot;registry.terraform.io/hashicorp/aws&quot;] (close)&#45;&gt;[root] aws_security_group.demo_db (expand) -->
<g id="edge61" class="edge">
<title>[root] provider[&quot;registry.terraform.io/hashicorp/aws&quot;] (close)&#45;&gt;[root] aws_security_group.demo_db (expand)</title>
<path fill="none" stroke="#000000" d="M1672.5037,-364.9779C1802.2935,-355.845 1974.2858,-342.2165 2135.3527,-324.151"/>
<polygon fill="#000000" stroke="#000000" points="2135.9105,-327.6103 2145.4547,-323.0104 2135.1251,-320.6545 2135.9105,-327.6103"/>
</g>
<!-- [root] root -->
<g id="node34" class="node">
<title>[root] root</title>
<ellipse fill="none" stroke="#000000" cx="1201" cy="-450" rx="58.4896" ry="18"/>
<text text-anchor="middle" x="1201" y="-446.3" font-family="Times,serif" font-size="14.00" fill="#000000">[root] root</text>
</g>
<!-- [root] root&#45;&gt;[root] meta.count&#45;boundary (EachMode fixup) -->
<g id="edge62" class="edge">
<title>[root] root&#45;&gt;[root] meta.count&#45;boundary (EachMode fixup)</title>
<path fill="none" stroke="#000000" d="M1156.7453,-438.1107C1116.1314,-427.1995 1055.1611,-410.8194 1007.1189,-397.9125"/>
<polygon fill="#000000" stroke="#000000" points="1007.9501,-394.5118 997.3844,-395.2973 1006.1339,-401.2721 1007.9501,-394.5118"/>
</g>
<!-- [root] root&#45;&gt;[root] provider[&quot;registry.terraform.io/hashicorp/aws&quot;] (close) -->
<g id="edge63" class="edge">
<title>[root] root&#45;&gt;[root] provider[&quot;registry.terraform.io/hashicorp/aws&quot;] (close)</title>
<path fill="none" stroke="#000000" d="M1245.2547,-438.1107C1285.5905,-427.2742 1346.0046,-411.0435 1393.8921,-398.1782"/>
<polygon fill="#000000" stroke="#000000" points="1394.8511,-401.5448 1403.6005,-395.57 1393.0349,-394.7845 1394.8511,-401.5448"/>
</g>
</g>
</svg>
