<svg xmlns="http://www.w3.org/2000/svg" xmlns:xlink="http://www.w3.org/1999/xlink" xmlns:lucid="lucid" width="1760" height="1360"><g transform="translate(0 0)" lucid:page-tab-id="0_0"><path d="M0 0h1760v1360H0z" fill="#fff"/><path d="M500 528c0-4.42 3.58-8 8-8h404c4.42 0 8 3.58 8 8v504c0 4.42-3.58 8-8 8H508c-4.42 0-8-3.58-8-8z" fill="#fff" fill-opacity="0"/><path d="M501.3 523.9l1.04-1.56 1.56-1.04m2.26-.93L508 520h1.5m2 0h2.98m2 0h3m2 0h2.98m2 0h3m1.98 0h3m2 0h2.98m2 0h3m1.98 0h3m2 0h3m1.98 0h3m2 0h2.98m2 0h3m1.98 0h3m2 0h2.98m2 0h3m2 0h2.98m2 0h3m1.98 0h3m2 0h2.98m2 0h3m1.98 0h3m2 0h2.98m2 0h3m2 0h2.98m2 0h3m1.98 0h3m2 0h2.98m2 0h3m2 0h2.98m2 0h3m1.98 0h3m2 0h2.98m2 0h3m1.98 0h3m2 0h2.98m2 0h3m2 0h2.98m2 0h3m1.98 0h3m2 0H709m2 0h3m2 0h2.98m2 0h3m1.98 0h3m2 0h2.98m2 0h3m1.98 0h3m2 0h2.98m2 0h3m2 0h2.98m2 0h3m1.98 0h3m2 0h2.98m2 0h3m1.98 0h3m2 0h2.98m2 0h3m2 0h2.98m2 0h3m1.98 0h3m2 0h2.98m2 0h3m2 0h2.98m2 0h3m1.98 0h3m2 0h2.98m2 0h3m1.98 0h3m2 0h2.98m2 0h3m2 0h2.98m2 0h3m1.98 0h3m2 0h2.98m2 0h3m2 0h2.98m2 0h3m1.98 0h3m2 0h2.98m2 0h3m1.98 0h1.5l1.84.37m2.26.93l1.56 1.04 1.04 1.56m.93 2.26L920 528v1.5m0 2v3m0 1.98v3m0 2v3m0 1.98v3m0 2v3m0 1.98v3m0 2v3m0 1.98v3m0 2v3m0 1.98v3m0 2v3m0 1.98v3m0 2v3m0 1.98v3m0 2v3m0 1.98v3m0 2v3m0 1.98v3m0 2v3m0 1.98v3m0 2v3m0 2v2.98m0 2v3m0 2v2.98m0 2v3m0 2v2.98m0 2v3m0 2v2.98m0 2v3m0 2v2.98m0 2v3m0 2v2.98m0 2v3m0 2v2.98m0 2v3m0 2v2.98m0 2v3m0 2v2.98m0 2v3m0 2v2.98m0 2v3m0 2v2.98m0 2v3m0 2v2.98m0 2v3m0 2v2.98m0 2v3m0 2V769m0 2v3m0 2V779m0 2v3m0 2v2.98m0 2v3m0 2v2.98m0 2v3m0 2v2.98m0 2v3m0 2v2.98m0 2v3m0 2v2.98m0 2v3m0 2v2.98m0 2v3m0 2v2.98m0 2v3m0 2v2.98m0 2v3m0 2v2.98m0 2v3m0 2v2.98m0 2v3m0 2v2.98m0 2v3m0 2v2.98m0 2v3m0 2v2.98m0 2v3m0 2v2.98m0 2v3m0 2v2.98m0 2v3m0 2v3m0 1.98v3m0 2v3m0 1.98v3m0 2v3m0 1.98v3m0 2v3m0 1.98v3m0 2v3m0 1.98v3m0 2v3m0 1.98v3m0 2v3m0 1.98v3m0 2v3m0 1.98v3m0 2v3m0 1.98v3m0 2v3m0 1.98v1.5l-.37 1.84m-.93 2.26l-1.04 1.56-1.56 1.04m-2.26.93l-1.84.37h-1.5m-2 0h-2.98m-2 0h-3m-2 0h-2.98m-2 0h-3m-1.98 0h-3m-2 0h-2.98m-2 0h-3m-1.98 0h-3m-2 0h-3m-1.98 0h-3m-2 0h-2.98m-2 0h-3m-1.98 0h-3m-2 0h-2.98m-2 0h-3m-2 0h-2.98m-2 0h-3m-1.98 0h-3m-2 0h-2.98m-2 0h-3m-1.98 0h-3m-2 0h-2.98m-2 0h-3m-2 0h-2.98m-2 0h-3m-1.98 0h-3m-2 0h-2.98m-2 0h-3m-2 0h-2.98m-2 0h-3m-1.98 0h-3m-2 0h-2.98m-2 0h-3m-1.98 0h-3m-2 0h-2.98m-2 0h-3m-2 0h-2.98m-2 0h-3m-1.98 0h-3m-2 0H711m-2 0h-3m-2 0h-2.98m-2 0h-3m-1.98 0h-3m-2 0h-2.98m-2 0h-3m-1.98 0h-3m-2 0h-2.98m-2 0h-3m-2 0h-2.98m-2 0h-3m-1.98 0h-3m-2 0h-2.98m-2 0h-3m-1.98 0h-3m-2 0h-2.98m-2 0h-3m-2 0h-2.98m-2 0h-3m-1.98 0h-3m-2 0h-2.98m-2 0h-3m-2 0h-2.98m-2 0h-3m-1.98 0h-3m-2 0h-2.98m-2 0h-3m-1.98 0h-3m-2 0h-2.98m-2 0h-3m-2 0h-2.98m-2 0h-3m-1.98 0h-3m-2 0h-2.98m-2 0h-3m-2 0h-2.98m-2 0h-3m-1.98 0h-3m-2 0h-2.98m-2 0h-3m-1.98 0H508l-1.84-.37m-2.26-.93l-1.56-1.04-1.04-1.56m-.93-2.26L500 1032v-1.5m0-2v-3m0-1.98v-3m0-2v-3m0-1.98v-3m0-2v-3m0-1.98v-3m0-2v-3m0-1.98v-3m0-2v-3m0-1.98v-3m0-2v-3m0-1.98v-3m0-2v-3m0-1.98v-3m0-2v-3m0-1.98v-3m0-2v-3m0-1.98v-3m0-2v-3m0-1.98v-3m0-2v-3m0-2v-2.98m0-2v-3m0-2v-2.98m0-2v-3m0-2v-2.98m0-2v-3m0-2v-2.98m0-2v-3m0-2v-2.98m0-2v-3m0-2v-2.98m0-2v-3m0-2v-2.98m0-2v-3m0-2v-2.98m0-2v-3m0-2v-2.98m0-2v-3m0-2v-2.98m0-2v-3m0-2v-2.98m0-2v-3m0-2v-2.98m0-2v-3m0-2v-2.98m0-2v-3m0-2V791m0-2v-3m0-2V781m0-2v-3m0-2v-2.98m0-2v-3m0-2v-2.98m0-2v-3m0-2v-2.98m0-2v-3m0-2v-2.98m0-2v-3m0-2v-2.98m0-2v-3m0-2v-2.98m0-2v-3m0-2v-2.98m0-2v-3m0-2v-2.98m0-2v-3m0-2v-2.98m0-2v-3m0-2v-2.98m0-2v-3m0-2v-2.98m0-2v-3m0-2v-2.98m0-2v-3m0-2v-2.98m0-2v-3m0-2v-2.98m0-2v-3m0-2v-2.98m0-2v-3m0-2v-3m0-1.98v-3m0-2v-3m0-1.98v-3m0-2v-3m0-1.98v-3m0-2v-3m0-1.98v-3m0-2v-3m0-1.98v-3m0-2v-3m0-1.98v-3m0-2v-3m0-1.98v-3m0-2v-3m0-1.98v-3m0-2v-3m0-1.98v-3m0-2v-3m0-1.98V528l.37-1.84" stroke="#d86613" fill="none"/><path d="M682 520h56v56h-56v-56z" stroke="#fff" stroke-opacity="0" fill="#d86613"/><path d="M701.68 543.73l-1.14 1.13 2.33 2.34H690v1.6h12.87l-2.33 2.34 1.14 1.13 4.27-4.27-4.27-4.27zM730 547.2h-12.87l2.33-2.34-1.14-1.13-4.27 4.27 4.27 4.27 1.14-1.13-2.33-2.34H730v-1.6zM709.2 530.63v12.87h1.6v-12.87l2.34 2.33 1.13-1.13-4.27-4.28-4.27 4.28 1.13 1.13 2.34-2.33zM710.8 565.37V552.5h-1.6v12.87l-2.34-2.33-1.13 1.13 4.27 4.28 4.27-4.28-1.13-1.13-2.34 2.33z" stroke="#fff" stroke-opacity="0" fill="#fff"/><use xlink:href="#a" transform="matrix(1,0,0,1,500,591) translate(159.55 14.4)"/><use xlink:href="#b" transform="matrix(1,0,0,1,500,591) translate(201.55 14.4)"/><path d="M61.38 139.8H41.63c-.9 0-1.63-.72-1.63-1.6v-2.43c0-9.04 5.94-16.62 14.75-18.74.4-.1.8-.05 1.16.16 2.6 1.38 5.42 1.38 8 0 .4-.22.76-.26 1.17-.17 2.3.57 4.22 1.4 6.2 2.7l-1.82 2.7c-1.47-.95-2.85-1.6-4.57-2.05-3.28 1.5-6.66 1.5-9.94 0-7.03 1.97-11.7 8.1-11.7 15.4v.78H61.4z" stroke="#fff" stroke-opacity="0" fill="#666"/><path d="M59.9 121.4c-5.9 0-10.65-4.76-10.65-10.62 0-5.86 4.76-10.62 10.64-10.62 5.86-.06 10.65 4.65 10.7 10.5.06 4.05-2 7.5-5.56 9.42-1.65.92-3.25 1.32-5.15 1.32zm0-18c-4.1 0-7.47 3.28-7.5 7.38 0 2.78 1.42 5.16 3.88 6.48 2.33 1.25 4.9 1.25 7.22 0 2.48-1.34 3.9-3.76 3.87-6.6-.05-4.04-3.4-7.3-7.48-7.25zM114.6 139.8H94.86v-3.23H113v-.8c0-7.3-4.68-13.44-11.7-15.4-3.3 1.53-6.67 1.53-9.96 0-1.72.48-3.13 1.14-4.6 2.17l-1.85-2.67c1.96-1.37 3.87-2.24 6.2-2.83.4-.1.8-.04 1.18.16 2.57 1.4 5.42 1.4 8.02 0 .37-.2.75-.25 1.16-.16 8.8 2.12 14.75 9.7 14.75 18.73v2.42c0 .88-.7 1.58-1.6 1.6z" stroke="#fff" stroke-opacity="0" fill="#666"/><path d="M96.28 121.4c-5.9 0-10.7-4.8-10.7-10.72 0-5.9 4.83-10.68 10.75-10.68s10.7 4.82 10.7 10.72c0 4.02-2.04 7.45-5.58 9.37-1.67.9-3.28 1.3-5.17 1.3zm0-18c-4.1-.02-7.44 3.28-7.46 7.4-.02 2.77 1.4 5.14 3.86 6.45 2.32 1.26 4.9 1.26 7.23 0 2.52-1.33 3.96-3.77 3.9-6.6-.07-4.08-3.44-7.33-7.52-7.25zM104 176.2H52.15c-.88 0-1.6-.7-1.6-1.6v-3.44c-.05-12.47 8.2-22.94 20.32-25.9.44-.1.83-.05 1.2.13 3.87 2.07 8.1 2.07 12 0 .35-.2.73-.25 1.17-.13 12.17 2.9 20.43 13.4 20.37 25.9v3.43c0 .9-.7 1.6-1.6 1.6zM53.8 173h48.55v-1.84c0-10.73-6.93-19.75-17.34-22.54-4.56 2.2-9.35 2.2-13.92 0-10.4 2.8-17.3 11.8-17.3 22.54z" stroke="#fff" stroke-opacity="0" fill="#666"/><path d="M78.13 150.15c-2.57 0-4.76-.55-7.04-1.78-7.08-3.87-9.68-12.7-5.82-19.78 3.88-7.06 12.73-9.66 19.83-5.8 7.07 3.86 9.67 12.7 5.82 19.77-1.4 2.57-3.24 4.4-5.8 5.8-2.26 1.23-4.45 1.78-7 1.78zm0-25.5c-4.24-.05-7.9 2.07-9.93 5.8-2.92 5.4-.94 12.15 4.47 15.1 3.5 1.86 7.36 1.86 10.86 0 3.77-2.04 5.93-5.7 5.87-9.94-.1-6.1-5.14-11.03-11.27-10.95z" stroke="#fff" stroke-opacity="0" fill="#666"/><path d="M115.05 139.8H77.2c-.64 0-1.16-.5-1.16-1.17v-2.5c-.04-9.1 6-16.75 14.82-18.9.33-.1.6-.04.9.1 2.8 1.5 5.9 1.5 8.75 0 .25-.14.53-.2.85-.1 8.88 2.13 14.9 9.77 14.86 18.9v2.5c0 .66-.5 1.18-1.15 1.18zm-36.64-2.35h35.44v-1.33c0-7.83-5.06-14.4-12.65-16.45-3.35 1.6-6.84 1.6-10.17 0-7.6 2.04-12.62 8.62-12.62 16.45z" stroke="#fff" stroke-opacity="0" stroke-width=".73" fill="#fff" fill-opacity="0"/><path d="M79 139.8H41.16c-.64 0-1.16-.5-1.16-1.17v-2.5c-.04-9.1 6-16.75 14.82-18.9.32-.1.6-.04.9.1 2.8 1.5 5.9 1.5 8.74 0 .24-.14.53-.2.85-.1 8.88 2.13 14.9 9.77 14.87 18.9v2.5c0 .66-.52 1.18-1.17 1.18zm-36.63-2.35H77.8v-1.33c0-7.83-5.06-14.4-12.65-16.45-3.34 1.6-6.83 1.6-10.17 0-7.6 2.04-12.6 8.62-12.6 16.45z" stroke="#fff" stroke-opacity="0" stroke-width=".73" fill="#fff" fill-opacity="0"/><path d="M280.5 745.26h50.7" stroke="#666" fill="none"/><path d="M280.5 745.76h-.53l.03-.5-.02-.5h.53" fill="#666"/><path d="M345.97 745.26l-14.26 4.63v-9.28z" stroke="#666" fill="#666"/><path d="M341.25 441.5h1300v240h-1300z" fill="#fff" fill-opacity="0"/><path d="M353.3 441.5h8m8.04 0h8.02m8.03 0h8m8.04 0h8.02m8.02 0h8.03m8.03 0h8.03m8.02 0h8.03m8.03 0h8.03m8.02 0h8.03m8.03 0h8.03m8.02 0h8.03m8.03 0h8.02m8.03 0h8.02m8.03 0h8.02m8.03 0H586m8.03 0h8.02m8.03 0h8.02m8.03 0h8.02m8.03 0h8.02m8.03 0h8.02m8.02 0h8.03m8.02 0h8.03m8.02 0h8.03m8.02 0h8.03m8.02 0h8.03m8.02 0h8.03m8.02 0h8.03m8.02 0h8.03m8.02 0h8.02m8.02 0h8.02m8.03 0h8.02m8.02 0h8.02m8.03 0h8.02m8.02 0h8.02m8.03 0H907m8.02 0h8.02m8.02 0h8.03m8 0h8.04m8.02 0h8.03m8 0h8.04m8.02 0h8.03m8 0h8.04m8.02 0h8.03m8 0h8.04m8.02 0h8.02m8.03 0h8.03m8.03 0h8.02m8.03 0h8.03m8.03 0h8.02m8.03 0h8.03m8.03 0h8.02m8.03 0h8.03m8.02 0h8.03m8.02 0h8.03m8.02 0h8.03m8.02 0h8.03m8.02 0h8.03m8.02 0h8.03m8.02 0h8.03m8.02 0h8.03m8.02 0h8.02m8.03 0h8.02m8.03 0h8.02m8.03 0h8.02m8.03 0h8.02m8.03 0h8.02m8.03 0h8.02m8.03 0h8.02m8.03 0h8.02m8.02 0h8.02m8.02 0h8.03m8.02 0h8.02m8.02 0h8.03m8.02 0h8.02m8.02 0h8.03m8.02 0h8.02m8.02 0h8.02m8.03 0h8m8.04 0h8.02m8.03 0h8m8.04 0h4v4m0 8v8m0 8v8m0 8v8m0 8v8m0 8v8m0 8v8m0 8v8m0 8v8m0 8v8m0 8v8m0 8v8m0 8v8m0 8v8m0 8v8m0 8v4h-4m-8.03 0h-8m-8.04 0h-8.02m-8.03 0h-8m-8.04 0h-8.02m-8.02 0H1557m-8.03 0h-8.03m-8.02 0h-8.03m-8.03 0h-8.03m-8.02 0h-8.03m-8.03 0h-8.03m-8.02 0h-8.03m-8.03 0h-8.02m-8.03 0h-8.02m-8.03 0h-8.02m-8.03 0h-8.02m-8.03 0h-8.02m-8.03 0h-8.02m-8.03 0h-8.02m-8.03 0h-8.02m-8.03 0h-8.02m-8.02 0h-8.03m-8.02 0h-8.03m-8.02 0h-8.03m-8.02 0h-8.03m-8.02 0H1236m-8.02 0h-8.03m-8.02 0h-8.03m-8.02 0h-8.03m-8.02 0h-8.02m-8.02 0h-8.02m-8.03 0h-8.02m-8.02 0h-8.02m-8.03 0h-8.02m-8.02 0h-8.02m-8.03 0h-8.02m-8.02 0h-8.02m-8.02 0h-8.03m-8 0h-8.04m-8.02 0h-8.03m-8 0h-8.04m-8.02 0h-8.03m-8 0h-8.04m-8.02 0h-8.03m-8 0h-8.04m-8.02 0h-8.02m-8.03 0h-8.03m-8.03 0h-8.02m-8.03 0h-8.03m-8.03 0h-8.02m-8.03 0h-8.03m-8.03 0h-8.02m-8.03 0h-8.03m-8.02 0h-8.03m-8.02 0h-8.03m-8.02 0h-8.03m-8.02 0h-8.03m-8.02 0h-8.03m-8.02 0h-8.03m-8.02 0h-8.03m-8.02 0h-8.03m-8.02 0h-8.02m-8.03 0h-8.02m-8.03 0h-8.02m-8.03 0h-8.02m-8.03 0h-8.02m-8.03 0h-8.02m-8.03 0h-8.02m-8.03 0h-8.02m-8.03 0h-8.02m-8.02 0h-8.02m-8.02 0h-8.03m-8.02 0h-8.02m-8.02 0h-8.03m-8.02 0h-8.02m-8.02 0h-8.03m-8.02 0h-8.02m-8.02 0h-8.02m-8.03 0h-8m-8.04 0h-8.02m-8.03 0h-8m-8.04 0h-4v-4m0-8v-8m0-8v-8m0-8v-8m0-8v-8m0-8v-8m0-8v-8m0-8v-8m0-8v-8m0-8v-8m0-8v-8m0-8v-8m0-8v-8m0-8v-8m0-8v-8m0-8v-4h4" stroke="#147eba" stroke-width="2" fill="none"/><path d="M341.37 681.5v-240h39.5v240z" stroke="#000" stroke-opacity="0" stroke-width="2" fill="#fff" fill-opacity="0"/><use xlink:href="#c" transform="matrix(6.123233995736766e-17,-1,1,6.123233995736766e-17,346.3688908170805,676.50531892602) translate(35.98765432098763 29.582222222222224)"/><use xlink:href="#d" transform="matrix(6.123233995736766e-17,-1,1,6.123233995736766e-17,346.3688908170805,676.50531892602) translate(133.962962962963 29.582222222222224)"/><use xlink:href="#e" transform="matrix(6.123233995736766e-17,-1,1,6.123233995736766e-17,346.3688908170805,676.50531892602) translate(181.22222222222223 29.582222222222224)"/><path d="M341.25 841.5h1300v240h-1300z" fill="#fff" fill-opacity="0"/><path d="M353.3 841.5h8m8.04 0h8.02m8.03 0h8m8.04 0h8.02m8.02 0h8.03m8.03 0h8.03m8.02 0h8.03m8.03 0h8.03m8.02 0h8.03m8.03 0h8.03m8.02 0h8.03m8.03 0h8.02m8.03 0h8.02m8.03 0h8.02m8.03 0H586m8.03 0h8.02m8.03 0h8.02m8.03 0h8.02m8.03 0h8.02m8.03 0h8.02m8.02 0h8.03m8.02 0h8.03m8.02 0h8.03m8.02 0h8.03m8.02 0h8.03m8.02 0h8.03m8.02 0h8.03m8.02 0h8.03m8.02 0h8.02m8.02 0h8.02m8.03 0h8.02m8.02 0h8.02m8.03 0h8.02m8.02 0h8.02m8.03 0H907m8.02 0h8.02m8.02 0h8.03m8 0h8.04m8.02 0h8.03m8 0h8.04m8.02 0h8.03m8 0h8.04m8.02 0h8.03m8 0h8.04m8.02 0h8.02m8.03 0h8.03m8.03 0h8.02m8.03 0h8.03m8.03 0h8.02m8.03 0h8.03m8.03 0h8.02m8.03 0h8.03m8.02 0h8.03m8.02 0h8.03m8.02 0h8.03m8.02 0h8.03m8.02 0h8.03m8.02 0h8.03m8.02 0h8.03m8.02 0h8.03m8.02 0h8.02m8.03 0h8.02m8.03 0h8.02m8.03 0h8.02m8.03 0h8.02m8.03 0h8.02m8.03 0h8.02m8.03 0h8.02m8.03 0h8.02m8.02 0h8.02m8.02 0h8.03m8.02 0h8.02m8.02 0h8.03m8.02 0h8.02m8.02 0h8.03m8.02 0h8.02m8.02 0h8.02m8.03 0h8m8.04 0h8.02m8.03 0h8m8.04 0h4v4m0 8v8m0 8v8m0 8v8m0 8v8m0 8v8m0 8v8m0 8v8m0 8v8m0 8v8m0 8v8m0 8v8m0 8v8m0 8v8m0 8v8m0 8v4h-4m-8.03 0h-8m-8.04 0h-8.02m-8.03 0h-8m-8.04 0h-8.02m-8.02 0H1557m-8.03 0h-8.03m-8.02 0h-8.03m-8.03 0h-8.03m-8.02 0h-8.03m-8.03 0h-8.03m-8.02 0h-8.03m-8.03 0h-8.02m-8.03 0h-8.02m-8.03 0h-8.02m-8.03 0h-8.02m-8.03 0h-8.02m-8.03 0h-8.02m-8.03 0h-8.02m-8.03 0h-8.02m-8.03 0h-8.02m-8.02 0h-8.03m-8.02 0h-8.03m-8.02 0h-8.03m-8.02 0h-8.03m-8.02 0H1236m-8.02 0h-8.03m-8.02 0h-8.03m-8.02 0h-8.03m-8.02 0h-8.02m-8.02 0h-8.02m-8.03 0h-8.02m-8.02 0h-8.02m-8.03 0h-8.02m-8.02 0h-8.02m-8.03 0h-8.02m-8.02 0h-8.02m-8.02 0h-8.03m-8 0h-8.04m-8.02 0h-8.03m-8 0h-8.04m-8.02 0h-8.03m-8 0h-8.04m-8.02 0h-8.03m-8 0h-8.04m-8.02 0h-8.02m-8.03 0h-8.03m-8.03 0h-8.02m-8.03 0h-8.03m-8.03 0h-8.02m-8.03 0h-8.03m-8.03 0h-8.02m-8.03 0h-8.03m-8.02 0h-8.03m-8.02 0h-8.03m-8.02 0h-8.03m-8.02 0h-8.03m-8.02 0h-8.03m-8.02 0h-8.03m-8.02 0h-8.03m-8.02 0h-8.03m-8.02 0h-8.02m-8.03 0h-8.02m-8.03 0h-8.02m-8.03 0h-8.02m-8.03 0h-8.02m-8.03 0h-8.02m-8.03 0h-8.02m-8.03 0h-8.02m-8.03 0h-8.02m-8.02 0h-8.02m-8.02 0h-8.03m-8.02 0h-8.02m-8.02 0h-8.03m-8.02 0h-8.02m-8.02 0h-8.03m-8.02 0h-8.02m-8.02 0h-8.02m-8.03 0h-8m-8.04 0h-8.02m-8.03 0h-8m-8.04 0h-4v-4m0-8v-8m0-8v-8m0-8v-8m0-8v-8m0-8v-8m0-8v-8m0-8v-8m0-8v-8m0-8v-8m0-8v-8m0-8v-8m0-8v-8m0-8v-8m0-8v-8m0-8v-4h4" stroke="#147eba" stroke-width="2" fill="none"/><path d="M341.74 1081.5v-240h39.5v240z" stroke="#000" stroke-opacity="0" stroke-width="2" fill="#fff" fill-opacity="0"/><use xlink:href="#c" transform="matrix(6.123233995736766e-17,-1,1,6.123233995736766e-17,346.7404046589062,1076.5053189260198) translate(35.98765432098763 29.582222222222224)"/><use xlink:href="#d" transform="matrix(6.123233995736766e-17,-1,1,6.123233995736766e-17,346.7404046589062,1076.5053189260198) translate(133.962962962963 29.582222222222224)"/><use xlink:href="#f" transform="matrix(6.123233995736766e-17,-1,1,6.123233995736766e-17,346.7404046589062,1076.5053189260198) translate(181.22222222222223 29.582222222222224)"/><path d="M480 460h483.75v200H480z" fill="#248814" fill-opacity=".13"/><path d="M480 460h56v56h-56v-56z" stroke="#fff" stroke-opacity="0" fill="#248814"/><path d="M523.38 482.18c-.15-.17-.34-.25-.56-.25h-5.15v-5.58c-.03-2.54-.96-4.7-2.84-6.4-1.9-1.84-4.15-2.75-6.77-2.75-2.65 0-4.9.83-6.8 2.62-1.9 1.7-2.87 3.87-2.9 6.4v5.66h-5.15c-.24 0-.43.1-.58.25-.16.17-.22.34-.22.6V508c0 .43.34.8.8.8h29.6c.46 0 .8-.37.8-.8v-25.28c0-.2-.06-.38-.22-.54zm-23.46-5.9c.03-2.13.8-3.88 2.37-5.3 1.6-1.5 3.52-2.2 5.73-2.2 2.22 0 4.12.75 5.7 2.25 1.54 1.4 2.32 3.2 2.32 5.32v5.58H499.9zm22.1 30.94h-28.03v-23.7h28z" stroke="#fff" stroke-opacity="0" fill="#fff"/><path d="M507.2 497.3v6.25h1.6v-6.23c2.13-.4 3.62-2.2 3.63-4.35 0-2.43-1.97-4.4-4.4-4.43-2.2-.03-4.06 1.5-4.44 3.68-.42 2.4 1.2 4.68 3.6 5.1zm.82-7.15c.78 0 1.44.27 2 .82.54.56.82 1.22.8 2 .03 1.55-1.2 2.8-2.74 2.82h-.06c-1.56.1-2.92-1.06-3.04-2.62-.12-1.56 1.05-2.93 2.6-3.03.16-.02.28-.02.44 0z" stroke="#fff" stroke-opacity="0" fill="#fff"/><use xlink:href="#g" transform="matrix(1,0,0,1,551,480) translate(0 14.222222222222223)"/><use xlink:href="#h" transform="matrix(1,0,0,1,551,480) translate(53.23456790123458 14.222222222222223)"/><use xlink:href="#i" transform="matrix(1,0,0,1,551,480) translate(114.46913580246915 14.222222222222223)"/><path d="M1060 460h520v200h-520z" fill="#147eba" fill-opacity=".13"/><path d="M1060 460h56v56h-56v-56z" stroke="#fff" stroke-opacity="0" fill="#147eba"/><path d="M1103.38 482.18c-.15-.17-.34-.25-.56-.25h-5.15v-5.58c-.03-2.54-.96-4.7-2.84-6.4-1.9-1.84-4.15-2.75-6.77-2.75-2.65 0-4.9.83-6.8 2.62-1.9 1.7-2.87 3.87-2.9 6.4v5.66h-5.15c-.24 0-.43.1-.58.25-.16.17-.22.34-.22.6V508c0 .43.34.8.8.8h29.6c.46 0 .8-.37.8-.8v-25.28c0-.2-.06-.38-.22-.54zm-23.46-5.9c.03-2.13.8-3.88 2.37-5.3 1.6-1.5 3.52-2.2 5.73-2.2 2.22 0 4.12.75 5.7 2.25 1.54 1.4 2.32 3.2 2.32 5.32v5.58h-16.16zm22.1 30.94h-28.03v-23.7h28z" stroke="#fff" stroke-opacity="0" fill="#fff"/><path d="M1087.2 497.3v6.25h1.6v-6.23c2.13-.4 3.62-2.2 3.63-4.35 0-2.43-1.97-4.4-4.4-4.43-2.2-.03-4.06 1.5-4.44 3.68-.42 2.4 1.2 4.68 3.6 5.1zm.82-7.15c.78 0 1.44.27 2 .82.54.56.82 1.22.8 2 .03 1.55-1.2 2.8-2.74 2.82h-.06c-1.56.1-2.92-1.06-3.04-2.62-.12-1.56 1.05-2.93 2.6-3.03.16-.02.28-.02.44 0z" stroke="#fff" stroke-opacity="0" fill="#fff"/><use xlink:href="#j" transform="matrix(1,0,0,1,1131,480) translate(0 14.222222222222223)"/><use xlink:href="#h" transform="matrix(1,0,0,1,1131,480) translate(60.14814814814815 14.222222222222223)"/><use xlink:href="#i" transform="matrix(1,0,0,1,1131,480) translate(121.38271604938274 14.222222222222223)"/><path d="M441.25 860h522.5v200h-522.5z" fill="#248814" fill-opacity=".13"/><path d="M441.25 860h56v56h-56v-56z" stroke="#fff" stroke-opacity="0" fill="#248814"/><path d="M484.63 882.18c-.15-.17-.34-.25-.56-.25h-5.15v-5.58c-.03-2.54-.96-4.7-2.84-6.4-1.9-1.84-4.15-2.75-6.77-2.75-2.64 0-4.9.83-6.8 2.62-1.9 1.7-2.86 3.87-2.9 6.4v5.66h-5.14c-.25 0-.44.1-.6.25-.15.17-.2.34-.2.6V908c0 .43.33.8.8.8h29.58c.47 0 .8-.37.8-.8v-25.28c0-.2-.05-.38-.2-.54zm-23.46-5.9c.03-2.13.8-3.88 2.37-5.3 1.62-1.5 3.53-2.2 5.74-2.2 2.22 0 4.12.75 5.7 2.25 1.54 1.4 2.32 3.2 2.32 5.32v5.58h-16.16zm22.1 30.94h-28.03v-23.7h28.02z" stroke="#fff" stroke-opacity="0" fill="#fff"/><path d="M468.45 897.3v6.25h1.6v-6.23c2.13-.4 3.62-2.2 3.63-4.35 0-2.43-1.97-4.4-4.4-4.43-2.2-.03-4.06 1.5-4.44 3.68-.4 2.4 1.2 4.68 3.6 5.1zm.82-7.15c.78 0 1.44.27 2 .82.54.56.82 1.22.8 2 .03 1.55-1.2 2.8-2.74 2.82h-.06c-1.56.1-2.92-1.06-3.04-2.62-.12-1.56 1.05-2.93 2.6-3.03.16-.02.28-.02.44 0z" stroke="#fff" stroke-opacity="0" fill="#fff"/><use xlink:href="#g" transform="matrix(1,0,0,1,512.25,880.0000000000001) translate(0 14.222222222222223)"/><use xlink:href="#h" transform="matrix(1,0,0,1,512.25,880.0000000000001) translate(53.23456790123458 14.222222222222223)"/><use xlink:href="#k" transform="matrix(1,0,0,1,512.25,880.0000000000001) translate(114.46913580246915 14.222222222222223)"/><path d="M1060 860h520v200h-520z" fill="#147eba" fill-opacity=".13"/><path d="M1060 860h56v56h-56v-56z" stroke="#fff" stroke-opacity="0" fill="#147eba"/><path d="M1103.38 882.18c-.15-.17-.34-.25-.56-.25h-5.15v-5.58c-.03-2.54-.96-4.7-2.84-6.4-1.9-1.84-4.15-2.75-6.77-2.75-2.65 0-4.9.83-6.8 2.62-1.9 1.7-2.87 3.87-2.9 6.4v5.66h-5.15c-.24 0-.43.1-.58.25-.16.17-.22.34-.22.6V908c0 .43.34.8.8.8h29.6c.46 0 .8-.37.8-.8v-25.28c0-.2-.06-.38-.22-.54zm-23.46-5.9c.03-2.13.8-3.88 2.37-5.3 1.6-1.5 3.52-2.2 5.73-2.2 2.22 0 4.12.75 5.7 2.25 1.54 1.4 2.32 3.2 2.32 5.32v5.58h-16.16zm22.1 30.94h-28.03v-23.7h28z" stroke="#fff" stroke-opacity="0" fill="#fff"/><path d="M1087.2 897.3v6.25h1.6v-6.23c2.13-.4 3.62-2.2 3.63-4.35 0-2.43-1.97-4.4-4.4-4.43-2.2-.03-4.06 1.5-4.44 3.68-.42 2.4 1.2 4.68 3.6 5.1zm.82-7.15c.78 0 1.44.27 2 .82.54.56.82 1.22.8 2 .03 1.55-1.2 2.8-2.74 2.82h-.06c-1.56.1-2.92-1.06-3.04-2.62-.12-1.56 1.05-2.93 2.6-3.03.16-.02.28-.02.44 0z" stroke="#fff" stroke-opacity="0" fill="#fff"/><use xlink:href="#j" transform="matrix(1,0,0,1,1131,880) translate(0 14.222222222222223)"/><use xlink:href="#h" transform="matrix(1,0,0,1,1131,880) translate(60.14814814814815 14.222222222222223)"/><use xlink:href="#k" transform="matrix(1,0,0,1,1131,880) translate(121.38271604938274 14.222222222222223)"/><path d="M78.1 176.7v51.4c0 .52.43.94.95.94.53 0 .95.42.95.95v35.5" stroke="#666" fill="none"/><path d="M78.6 176.72h-1v-.5h1" fill="#666"/><path d="M80 280.25L75.36 266h9.28z" stroke="#666" fill="#666"/><path d="M98.1 1004.38V757.26c0-6.63 5.38-12 12-12h73.52" stroke="#666" fill="none"/><path d="M98.6 1004.9l-1-.05v-.48h1" fill="#666"/><path d="M198.38 745.26l-14.26 4.63v-9.28z" stroke="#666" fill="#666"/><path d="M80 331.2v143.85" stroke="#666" fill="none"/><path d="M80.5 331.2h-1v-.5h1" fill="#666"/><path d="M80 489.8l-4.64-14.25h9.28z" stroke="#666" fill="#666"/><path d="M381.25 360h1240v760h-1240z" stroke="#248814" stroke-width="2" fill-opacity="0"/><path d="M381.25 360h56v56h-56v-56z" stroke="#fff" stroke-opacity="0" fill="#248814"/><path d="M413 388.3h-1.17v-1.1c-.12-1.73-1.48-3.07-3.2-3.2-1.9-.13-3.54 1.3-3.67 3.2v1.07h-1.18c-.44 0-.8.36-.8.8v6.13c0 .44.36.8.8.8H413c.45 0 .8-.36.8-.8v-6.1c0-.44-.35-.8-.8-.8zm-6.4-1.06c.1-1.02 1-1.77 2-1.67.9.08 1.6.77 1.68 1.67v1.06h-3.72zm5.66 7.08h-7.68v-4.42h7.63z" stroke="#fff" stroke-opacity="0" fill="#fff"/><path d="M423.52 385.74c-.08-2.44-1.58-4.47-3.87-5.3-1.58-.46-3.16-.13-4.4.9-.68-1.44-1.47-2.6-2.6-3.75-3.24-3.36-7.94-4.3-12.18-2.4-4.04 1.9-6.4 5.63-6.54 10.05v.7c-3.4.98-5.66 4.08-5.5 7.65v.63c.4 4.28 3.92 7.52 8.2 7.47h26s7.42-.63 7.42-8.1c.04-3.9-2.66-7.2-6.53-7.86zm-.96 14.4h-25.92c-3.46.05-6.3-2.53-6.58-5.97v-.52c-.16-3.05 1.92-5.7 4.9-6.3.4-.12.64-.48.6-.9-.05-.4-.05-.73 0-1.14.08-3.78 2.12-6.94 5.53-8.6 1.24-.56 2.4-.8 3.82-.84 2.62.08 4.87 1.04 6.7 2.94 1.25 1.3 2.04 2.6 2.62 4.3.04.15.12.28.25.37.36.27.86.2 1.1-.17.84-1.18 2.26-1.67 3.63-1.3 1.8.72 2.87 2.4 2.83 4.32-.08.4.2.82.63.9 3.56.36 6.2 3.55 5.8 7.12-.28 3.13-2.7 5.52-5.8 5.85z" stroke="#fff" stroke-opacity="0" fill="#fff"/><use xlink:href="#l" transform="matrix(1,0,0,1,452.25,380.00000000000006) translate(0 14.222222222222223)"/><use xlink:href="#m" transform="matrix(1,0,0,1,452.25,380.00000000000006) translate(0 33.777777777777786)"/><path d="M241.25 240h1420v1000h-1420z" stroke="#232f3e" stroke-width="2" fill-opacity="0"/><path d="M241.25 240h56v56h-56v-56z" stroke="#fff" stroke-opacity="0" fill="#232f3e"/><path d="M259.47 265.87c-.04.48.05.87.17 1.34.12.4.3.7.5 1.07.03.1.07.22.07.34 0 .2-.1.36-.27.46l-.95.62c-.12.08-.25.13-.37.13-.15 0-.32-.06-.44-.2-.2-.2-.37-.43-.53-.7-.17-.25-.3-.53-.46-.86-1.1 1.37-2.62 2.1-4.4 2.06-1.14.06-2.12-.3-2.95-1.08-.78-.8-1.15-1.76-1.1-2.85-.05-1.23.4-2.28 1.35-3.08 1.07-.85 2.3-1.23 3.66-1.16.57 0 1.02.02 1.6.1.57.1 1.1.2 1.72.33v-1.1c.08-.88-.16-1.67-.7-2.37-.74-.56-1.56-.8-2.46-.7-.54 0-1.04.07-1.6.2-.6.13-1.04.3-1.6.5l-.5.2h-.25c-.2 0-.33-.16-.33-.45v-.75c0-.18.04-.34.12-.5.13-.16.25-.26.4-.33.67-.3 1.2-.5 1.9-.67.78-.2 1.48-.3 2.3-.28 1.48-.13 2.8.26 3.9 1.2.95 1.05 1.36 2.28 1.23 3.67zm-6.07 2.28c.57 0 1.06-.1 1.6-.28.57-.2 1.02-.5 1.44-.96.24-.27.4-.56.5-.93.1-.45.15-.84.15-1.3V264c-.54-.1-.95-.17-1.44-.2h-1.4c-.82-.08-1.56.12-2.22.58-.53.45-.78 1.04-.74 1.73-.04.6.13 1.16.54 1.6.45.38.98.52 1.56.45zm12 1.6c-.22 0-.42-.03-.6-.15-.15-.17-.23-.36-.32-.6l-3.5-11.5-.1-.62c0-.24.1-.37.36-.37h1.48c.2 0 .37.04.57.15.16.18.24.37.28.6l2.5 9.96 2.4-9.93c0-.24.07-.44.27-.6.17-.12.37-.16.58-.15h1.2c.24 0 .4.03.6.15.17.18.25.36.3.6l2.33 9.94 2.55-10c.05-.2.17-.4.34-.58.16-.1.37-.17.57-.14h1.4c.17 0 .34.1.38.3v.31s0 .2-.12.35l-3.62 11.53c-.04.22-.12.42-.3.6-.2.1-.35.14-.56.13h-1.27c-.24.04-.44-.02-.6-.15-.17-.16-.26-.36-.3-.6l-2.3-9.6-2.3 9.6c-.04.24-.12.44-.28.6-.2.13-.4.2-.62.16zm19.2.38c-.82 0-1.5-.07-2.3-.25-.65-.13-1.14-.3-1.72-.6-.2-.1-.37-.23-.45-.42-.08-.14-.12-.28-.12-.43v-.75c0-.3.13-.46.33-.46h.3l.36.16c.57.23 1.02.4 1.6.5.6.14 1.14.2 1.8.2.78.05 1.48-.1 2.18-.5.5-.3.78-.8.73-1.4.06-.4-.1-.76-.35-1.04-.46-.4-.95-.65-1.52-.8l-2.18-.68c-.94-.25-1.73-.73-2.38-1.5-.5-.65-.74-1.35-.74-2.18 0-.6.12-1.08.4-1.6.3-.5.63-.9 1.08-1.22.5-.38 1-.6 1.6-.78.67-.18 1.2-.26 1.9-.25.33-.03.6-.03.98 0l1 .16.8.22.67.26c.16.1.28.22.45.38.08.15.12.3.12.5v.7c0 .32-.12.47-.37.47-.2-.03-.37-.08-.57-.18-.95-.42-1.8-.6-2.88-.58-.7-.04-1.3.1-1.97.4-.5.3-.74.8-.7 1.36 0 .4.13.76.46 1.05.48.4.97.65 1.6.82l2.08.67c.95.24 1.68.7 2.3 1.44.5.64.7 1.3.7 2.1 0 .63-.12 1.17-.37 1.73-.28.55-.6.95-1.1 1.32-.5.4-1 .66-1.6.84-.74.23-1.4.33-2.14.34zM287.36 277.48c-5.6 3.82-11.37 5.58-18.16 5.56-8.54.05-15.82-2.74-22.16-8.45-.5-.42 0-1 .5-.68 7.06 4.05 14.02 5.9 22.2 5.9 6.1-.04 11.28-1.1 16.92-3.47.82-.35 1.5.55.7 1.13z" stroke="#fff" stroke-opacity="0" fill="#fff"/><path d="M289.4 275.2c-.63-.82-4.15-.38-5.74-.2-.47 0-.54-.36-.1-.66 2.8-1.98 7.4-1.4 8-.74.58.67-.15 5.28-2.8 7.5-.4.32-.77.13-.6-.3.55-1.52 1.87-4.83 1.25-5.6z" stroke="#fff" stroke-opacity="0" fill="#fff"/><use xlink:href="#n" transform="matrix(1,0,0,1,312.25,259.99999999999994) translate(0 14.222222222222223)"/><use xlink:href="#o" transform="matrix(1,0,0,1,312.25,259.99999999999994) translate(45.333333333333336 14.222222222222223)"/><path d="M381 778.67c-18.44 0-33.4-14.97-33.4-33.4 0-18.46 14.96-33.43 33.4-33.43 18.45 0 33.42 14.97 33.42 33.42 0 18.44-14.97 33.4-33.4 33.4zm0-63.96c-16.9 0-30.53 13.65-30.53 30.56 0 16.9 13.63 30.54 30.54 30.54 16.92 0 30.55-13.64 30.55-30.54S397.92 714.7 381 714.7z" stroke="#fff" stroke-opacity="0" fill="#693cc5"/><path d="M397 765.33h-5.33c-.8 0-1.43-.63-1.43-1.42v-27.56c-2.9-1.5-5.64-2.17-8.88-2.25-3.56.07-6.52.85-9.65 2.55v27.26c0 .8-.62 1.43-1.4 1.43h-5.28c-.8 0-1.43-.63-1.43-1.42v-31c0-.43.16-.8.48-1.06 5.08-4.18 10.73-6.12 17.28-5.96 6.2-.12 11.53 1.62 16.5 5.3.4.26.57.66.57 1.1v31.63c0 .8-.63 1.43-1.43 1.43zm-3.9-2.84h2.47v-29.52c-4.36-3-8.92-4.34-14.2-4.26-5.62-.16-10.47 1.42-14.92 4.8v28.97h2.43v-26.76c0-.55.28-1.02.77-1.26 3.76-2.13 7.4-3.16 11.7-3.23 3.94.1 7.3.98 10.77 2.84h.14c.52.22.84.7.84 1.3z" stroke="#fff" stroke-opacity="0" fill="#693cc5"/><use xlink:href="#p" transform="matrix(1,0,0,1,317.59228894229534,787.6714484450406) translate(33.40123456790123 14.222222222222223)"/><use xlink:href="#q" transform="matrix(1,0,0,1,317.59228894229534,787.6714484450406) translate(28.462962962962962 35.55555555555556)"/><path d="M453.15 77c0-4.42 3.58-8 8-8h836.75c4.4 0 8 3.58 8 8v25.16c0 4.4-3.6 8-8 8H461.15c-4.42 0-8-3.6-8-8z" stroke="#000" stroke-opacity="0" stroke-width="2" fill="#fff" fill-opacity="0"/><use xlink:href="#r" transform="matrix(1,0,0,1,457.14655278534315,73) translate(244.3667901234568 25.782777777777778)"/><path d="M636.6 108.8h493.13M636.63 108.8h-1.03M1129.7 108.8h1.03" stroke="#a9afb8" stroke-width="2" fill="none"/><path d="M453.15 118.16c0-4.42 3.58-8 8-8h837.7c4.42 0 8 3.58 8 8V121c0 4.42-3.58 8-8 8h-837.7c-4.42 0-8-3.58-8-8z" stroke="#000" stroke-opacity="0" stroke-width="2" fill="#fff" fill-opacity="0"/><use xlink:href="#s" transform="matrix(1,0,0,1,457.1465527853436,114.15522395689881) translate(307.6362345679013 14.917037037037037)"/><use xlink:href="#t" transform="matrix(1,0,0,1,457.1465527853436,114.15522395689881) translate(345.7919958847737 14.917037037037037)"/><use xlink:href="#u" transform="matrix(1,0,0,1,457.1465527853436,114.15522395689881) translate(406.8922016460906 14.917037037037037)"/><use xlink:href="#v" transform="matrix(1,0,0,1,457.1465527853436,114.15522395689881) translate(419.3416872427984 14.917037037037037)"/><use xlink:href="#w" transform="matrix(1,0,0,1,457.1465527853436,114.15522395689881) translate(493.99611111111113 14.917037037037037)"/><use xlink:href="#x" transform="matrix(1,0,0,1,457.1465527853436,114.15522395689881) translate(510.9919958847737 14.917037037037037)"/><path d="M240 785.26c-22.08 0-40-17.92-40-40s17.92-40 40-40 40 17.92 40 40-17.92 40-40 40zm0-76.8c-20.32 0-36.8 16.48-36.8 36.8 0 20.32 16.48 36.8 36.8 36.8 20.32 0 36.8-16.48 36.8-36.8 0-20.32-16.48-36.8-36.8-36.8z" stroke="#fff" stroke-opacity="0" stroke-width="3" fill="#693cc5"/><path d="M263.86 756.45h-3.06v-6.4c0-.9-.7-1.6-1.58-1.6h-4.83v-6.4c0-.88-.73-1.57-1.6-1.57h-11.2v-4.82h11.2c.87 0 1.6-.74 1.6-1.58v-14.44c0-.9-.73-1.58-1.6-1.58h-25.6c-.88 0-1.6.7-1.6 1.58v14.44c0 .84.72 1.58 1.6 1.58h11.2v4.82h-11.2c-.88 0-1.6.7-1.6 1.58v6.4h-4.78c-.9 0-1.63.7-1.63 1.6v6.4h-3.06c-.87 0-1.58.73-1.58 1.57v8.04c0 .9.7 1.6 1.58 1.6h7.84c.92 0 1.63-.7 1.63-1.6v-8.04c0-.84-.7-1.58-1.62-1.58h-1.58v-4.8h8v4.8h-1.58c-.92 0-1.63.74-1.63 1.58v8.04c0 .9.7 1.6 1.62 1.6h8c.86 0 1.57-.7 1.57-1.6v-8.04c0-.84-.72-1.58-1.58-1.58h-3.2v-6.4c0-.9-.73-1.6-1.64-1.6h-3.16v-4.8h22.36v4.8h-3.16c-.92 0-1.63.7-1.63 1.6v6.4h-3.22c-.86 0-1.58.74-1.58 1.58v8.04c0 .9.72 1.6 1.58 1.6h8c.9 0 1.63-.7 1.63-1.6v-8.04c0-.84-.7-1.58-1.62-1.58h-1.58v-4.8h8v4.8h-1.74c-.86 0-1.58.74-1.58 1.58v8.04c0 .9.72 1.6 1.58 1.6h8.05c.88 0 1.6-.7 1.6-1.6v-8.04-.05c-.06-.84-.78-1.53-1.64-1.53zm-41.46 7.98h-4.63v-4.76h4.63zm12.8-4.76v4.76h-4.8v-4.76zm-6.38-27.23v-11.16h22.36v11.16zm20.78 32h-4.8v-4.77h4.8zm12.63 0h-4.8v-4.77h4.8z" stroke="#fff" stroke-opacity="0" stroke-width="3" fill="#693cc5"/><use xlink:href="#y" transform="matrix(1,0,0,1,170,794.2562658433952) translate(3.5749999999999886 14.4)"/><use xlink:href="#z" transform="matrix(1,0,0,1,170,794.2562658433952) translate(96.425 14.4)"/><use xlink:href="#A" transform="matrix(1,0,0,1,170,794.2562658433952) translate(34.55 36)"/><path d="M872.18 974.68h-64.36v-64.36h64.36zm-61.02-3.34h57.68v-57.68h-57.68z" stroke="#fff" stroke-opacity="0" fill="#d86613"/><path d="M817.02 902.5h3.33v9.48h-3.33v-9.48zM827.47 902.5h3.33v9.48h-3.33v-9.48zM837.93 902.5h3.34v9.48h-3.34v-9.48zM848.4 902.5h3.33v9.48h-3.33v-9.48zM858.87 902.5h3.33v9.48h-3.33v-9.48zM817.02 973.02h3.33v9.48h-3.33v-9.48zM827.47 973.02h3.33v9.48h-3.33v-9.48zM837.93 973.02h3.34v9.48h-3.34v-9.48zM848.4 973.02h3.33v9.48h-3.33v-9.48zM858.87 973.02h3.33v9.48h-3.33v-9.48zM870.52 919.92H880v3.33h-9.48v-3.33zM870.52 930.37H880v3.33h-9.48v-3.33zM870.52 940.83H880v3.34h-9.48v-3.34zM870.52 951.3H880v3.33h-9.48v-3.33zM870.52 961.75H880v3.33h-9.48v-3.33zM800 919.92h9.48v3.33H800v-3.33zM800 930.37h9.48v3.33H800v-3.33zM800 940.83h9.48v3.34H800v-3.34zM800 951.3h9.48v3.33H800v-3.33zM800 961.75h9.48v3.33H800v-3.33z" stroke="#fff" stroke-opacity="0" fill="#d86613"/><use xlink:href="#B" transform="matrix(1,0,0,1,770,991.5000000000001) translate(44.2 14.4)"/><use xlink:href="#C" transform="matrix(1,0,0,1,770,991.5000000000001) translate(85.8 14.4)"/><path d="M872.18 621.18h-64.36v-64.36h64.36zm-61.02-3.34h57.68v-57.68h-57.68z" stroke="#fff" stroke-opacity="0" fill="#d86613"/><path d="M817.02 549h3.33v9.48h-3.33V549zM827.47 549h3.33v9.48h-3.33V549zM837.93 549h3.34v9.48h-3.34V549zM848.4 549h3.33v9.48h-3.33V549zM858.87 549h3.33v9.48h-3.33V549zM817.02 619.52h3.33V629h-3.33v-9.48zM827.47 619.52h3.33V629h-3.33v-9.48zM837.93 619.52h3.34V629h-3.34v-9.48zM848.4 619.52h3.33V629h-3.33v-9.48zM858.87 619.52h3.33V629h-3.33v-9.48zM870.52 566.42H880v3.33h-9.48v-3.33zM870.52 576.87H880v3.33h-9.48v-3.33zM870.52 587.33H880v3.34h-9.48v-3.34zM870.52 597.8H880v3.33h-9.48v-3.33zM870.52 608.25H880v3.33h-9.48v-3.33zM800 566.42h9.48v3.33H800v-3.33zM800 576.87h9.48v3.33H800v-3.33zM800 587.33h9.48v3.34H800v-3.34zM800 597.8h9.48v3.33H800v-3.33zM800 608.25h9.48v3.33H800v-3.33z" stroke="#fff" stroke-opacity="0" fill="#d86613"/><use xlink:href="#B" transform="matrix(1,0,0,1,770,638) translate(44.2 14.4)"/><use xlink:href="#D" transform="matrix(1,0,0,1,770,638) translate(85.8 14.4)"/><g filter="url(#E)"><path d="M1293.28 904.78h124.44v124.44h-124.44z" stroke="#fff" stroke-opacity="0" fill="#3b48cc"/><path d="M1415.48 907.02V1027h-119.96V907h119.96m4.52-4.52h-129v129h129v-129z" stroke="#fff" stroke-opacity="0" fill="#fff"/><path d="M1356.25 928.3c-15.2 0-26.75 4.9-26.75 11.36v56.1c0 6.56 11.56 11.46 26.75 11.46 15.2 0 26.75-4.9 26.75-11.37v-56.1c0-6.56-11.5-11.45-26.75-11.45zm0 3c13.96 0 23.7 4.42 23.7 8.36 0 3.95-9.74 8.37-23.7 8.37-13.96 0-23.7-4.34-23.7-8.3 0-3.93 9.74-8.43 23.7-8.43zm0 72.92c-13.96 0-23.7-4.42-23.7-8.37v-11.83c4.4 3.63 13.1 6 23.7 6 10.65 0 19.3-2.37 23.7-6v11.83c0 3.95-9.74 8.37-23.7 8.37zm0-17.28c-13.96 0-23.7-4.34-23.7-8.3v-13.88c4.4 3.55 13.1 5.92 23.7 5.92 10.65 0 19.3-2.37 23.7-5.92v13.9c0 3.94-9.74 8.28-23.7 8.28zm0-19.34c-13.96 0-23.7-4.34-23.7-8.3v-14.27c4.4 3.63 13.1 6 23.7 6 10.65 0 19.3-2.37 23.7-6v14.2c0 3.95-9.74 8.37-23.7 8.37z" stroke="#fff" stroke-opacity="0" fill="#fff"/><use xlink:href="#F" transform="matrix(1,0,0,1,1261,1040.5) translate(48.525 14.4)"/><use xlink:href="#C" transform="matrix(1,0,0,1,1261,1040.5) translate(130.475 14.4)"/></g><g filter="url(#E)"><path d="M1293.28 502.28h124.44v124.44h-124.44z" stroke="#fff" stroke-opacity="0" fill="#3b48cc"/><path d="M1415.48 504.5v120h-119.96v-120h119.96m4.52-4.5h-129v129h129V500z" stroke="#fff" stroke-opacity="0" fill="#fff"/><path d="M1356.25 525.8c-15.2 0-26.75 4.9-26.75 11.36v56.1c0 6.56 11.56 11.46 26.75 11.46 15.2 0 26.75-4.9 26.75-11.37v-56.1c0-6.56-11.5-11.45-26.75-11.45zm0 3c13.96 0 23.7 4.42 23.7 8.36 0 3.95-9.74 8.37-23.7 8.37-13.96 0-23.7-4.34-23.7-8.3 0-3.93 9.74-8.43 23.7-8.43zm0 72.92c-13.96 0-23.7-4.42-23.7-8.37v-11.83c4.4 3.63 13.1 6 23.7 6 10.65 0 19.3-2.37 23.7-6v11.83c0 3.95-9.74 8.37-23.7 8.37zm0-17.28c-13.96 0-23.7-4.34-23.7-8.3v-13.88c4.4 3.55 13.1 5.92 23.7 5.92 10.65 0 19.3-2.37 23.7-5.92v13.9c0 3.94-9.74 8.28-23.7 8.28zm0-19.34c-13.96 0-23.7-4.34-23.7-8.3v-14.27c4.4 3.63 13.1 6 23.7 6 10.65 0 19.3-2.37 23.7-6v14.2c0 3.95-9.74 8.37-23.7 8.37z" stroke="#fff" stroke-opacity="0" fill="#fff"/><use xlink:href="#F" transform="matrix(1,0,0,1,1261,638) translate(48.525 14.4)"/><use xlink:href="#D" transform="matrix(1,0,0,1,1261,638) translate(130.475 14.4)"/></g><path d="M104.4 330.7h-8.48v-3.4h8.48c8.16 0 12.08-3.6 12.08-11 0-6.34-3.68-10.34-11.04-11.8-.8-.16-1.36-.82-1.36-1.58-.4-6.14-3.92-8.37-6.8-8.37-2.08.05-3.84.96-5.12 2.64-.56.7-1.6.85-2.4.3-.24-.2-.4-.46-.56-.77-1.04-3.14-2.56-5.53-4.96-7.86-5.36-5.42-12.96-6.9-20-3.85-6.32 2.9-10.24 8.72-10.48 15.72 0 .7.08 1.3.16 2.07.08.88-.48 1.64-1.28 1.84-3.44.86-9.28 3.45-9.28 11.46v.8c.4 6.04 5.44 10.35 12.08 10.35h8.48v3.4h-8.48c-8.48 0-14.96-5.68-15.44-13.5v-1.05c-.24-6.7 3.92-12.52 10.4-14.35v-1.06C50.64 289 60.32 279.74 72 280c5.68.15 10.56 2.23 14.64 6.4 2.08 2.02 3.52 4.1 4.72 6.78 1.76-1.37 3.68-1.98 5.92-2.03 4.48 0 9.2 3.2 10.16 10.25 8.08 2.07 12.56 7.3 12.56 14.85-.08 9.33-5.6 14.45-15.6 14.45zm-18.08 0H73.6v-3.4h12.72z" stroke="#fff" stroke-opacity="0" fill="#232f3e"/><path d="M91.1 329.1c-.47 0-.86-.16-1.18-.5l-9.58-9.57 2.4-2.42 8.36 8.33 8.37-8.38 2.4 2.42-9.57 9.56c-.32.37-.73.56-1.2.57z" stroke="#fff" stroke-opacity="0" fill="#232f3e"/><path d="M89.4 301.85h3.4v23.95h-3.4v-23.95zM77.17 312.65l-8.38-8.38-8.38 8.38-2.4-2.42 9.57-9.56c.66-.67 1.7-.67 2.38 0l9.58 9.56z" stroke="#fff" stroke-opacity="0" fill="#232f3e"/><path d="M67.1 301.85h3.4v28.75h-3.4v-28.75z" stroke="#fff" stroke-opacity="0" fill="#232f3e"/><path d="M104.4 330.7H55.44c-8.48 0-14.95-5.68-15.43-13.48v-1.07c-.24-6.74 3.92-12.5 10.4-14.4v-1.05-.8c.55-8.12 5.2-14.7 12.55-18.06 8.23-3.54 17.27-1.82 23.6 4.57 2.15 2.08 3.6 4.16 4.8 6.8 1.74-1.32 3.66-1.98 5.9-1.98 4.48 0 9.2 3.2 10.16 10.24 8.15 2.02 12.55 7.3 12.55 14.85-.08 9.28-5.6 14.4-15.6 14.4zm-32.96-47.18c-2.63 0-4.87.45-7.27 1.47-6.32 2.93-10.16 8.75-10.4 15.7 0 .76 0 1.42.16 2.13.08.86-.48 1.67-1.28 1.87-3.44.86-9.27 3.4-9.27 11.45v.92c.32 5.93 5.43 10.18 12.07 10.18h48.94c8.15 0 12.06-3.6 12.06-11 0-6.33-3.67-10.33-11.03-11.8-.8-.15-1.28-.8-1.36-1.57-.32-6.2-3.92-8.37-6.8-8.37-2.08.07-3.84.98-5.12 2.65-.55.7-1.6.86-2.4.3-.23-.2-.4-.45-.55-.76-1.04-3.1-2.56-5.53-4.96-7.86-3.52-3.55-7.76-5.32-12.8-5.32z" stroke="#fff" stroke-opacity="0" fill="#fff" fill-opacity="0"/><g><use xlink:href="#G" transform="matrix(1,0,0,1,10,339.7) translate(42.05 14.4)"/></g><path d="M80 571.43c-22.08 0-40-17.92-40-40s17.92-40 40-40 40 17.92 40 40-17.92 40-40 40zm0-76.56c-20.24 0-36.56 16.32-36.56 36.56C43.44 551.67 59.76 568 80 568c20.24 0 36.56-16.33 36.56-36.57 0-20.24-16.32-36.56-36.56-36.56z" stroke="#fff" stroke-opacity="0" fill="#232f3e"/><path d="M80 549.1c-9.75 0-17.67-7.92-17.67-17.67 0-9.75 7.92-17.67 17.67-17.67 9.75 0 17.67 7.92 17.67 17.67 0 9.75-7.92 17.67-17.67 17.67zm0-31.9c-7.88 0-14.28 6.4-14.28 14.27.04 7.88 6.44 14.24 14.28 14.24 7.88 0 14.28-6.4 14.28-14.27-.04-7.88-6.4-14.24-14.28-14.24z" stroke="#fff" stroke-opacity="0" fill="#232f3e"/><path d="M80 541.12c-5.35 0-9.7-4.34-9.7-9.7 0-5.33 4.35-9.67 9.7-9.67s9.7 4.34 9.7 9.68c0 5.35-4.35 9.7-9.7 9.7zm0-15.96c-3.47 0-6.28 2.8-6.28 6.27 0 3.47 2.8 6.28 6.28 6.28 3.47 0 6.28-2.8 6.28-6.27 0-3.47-2.8-6.27-6.28-6.27z" stroke="#fff" stroke-opacity="0" fill="#232f3e"/><g><use xlink:href="#H" transform="matrix(1,0,0,1,10,580.431430066091) translate(38.125 14.4)"/></g><path d="M301.08 400c-10.83 0-28.1-2.46-28.3-9.1l-7.74-57.2c-.14-.97.43-1.86 1.37-2.06.95-.14 1.9.47 2.1 1.43.8 3.28 13.66 7.86 32.65 7.86 19 0 31.86-4.58 32.65-7.86.22-.96 1.16-1.57 2.1-1.43.94.2 1.5 1.1 1.37 2.05l-7.87 57.2c0 2.26-2.1 4.18-6 5.75-1.8.68-3.4 1.16-5.27 1.57-5.92 1.3-10.98 1.78-17.05 1.78zm-31.92-61.66l6.93 52.3v.2c0 2.05 9.74 5.8 24.9 5.8 5.8.08 10.63-.47 16.26-1.63 1.74-.4 3.18-.88 4.84-1.56 3.1-1.23 3.83-2.33 3.83-2.67v-.2l7-52.23c-6.57 3.9-19.8 6-31.92 6-12.12 0-25.27-2.1-31.84-6z" stroke="#fff" stroke-opacity="0" fill="#3f8624"/><path d="M301.1 344.32c-16.15 0-34.25-3.65-35.98-10.4V332.98v-.23c0-7.52 19.03-12.77 36.12-12.77 17.1 0 35.98 5.25 35.98 12.77v.22l-.07.7v.2c-1.88 6.77-19.97 10.42-36.05 10.42zm-32.67-11.2c1.1 3.3 13.85 7.8 32.67 7.8s31.58-4.5 32.66-7.8v-.45c-.22-3.3-13.63-9.26-32.66-9.26-19.04 0-32.52 5.96-32.74 9.27zM337.27 367.86c-8.07 0-25.83-8-36.92-13.46l1.5-3.06c15.3 7.53 33.35 14.5 36.45 13.18-.24-.48-1.4-2.02-6.83-4.97l-.24-.17 1.7-2.96.24.17c5.47 2.98 8.07 5.3 8.53 7.5.16.93-.08 1.83-.7 2.57-1.04.95-2.32 1.36-3.73 1.2z" stroke="#fff" stroke-opacity="0" fill="#3f8624"/><path d="M301.1 356.6c-2.04 0-3.7-1.66-3.7-3.7s1.66-3.7 3.7-3.7c2.03 0 3.7 1.66 3.7 3.7-.02 2.04-1.67 3.7-3.7 3.7zm0-4h-.02c-.16 0-.3.14-.3.3 0 .33.6.33.6 0v-.04c0-.16-.12-.28-.28-.28z" stroke="#fff" stroke-opacity="0" fill="#3f8624"/><g><use xlink:href="#I" transform="matrix(1,0,0,1,235.04040465890625,409) translate(6.625 14.4)"/><use xlink:href="#J" transform="matrix(1,0,0,1,235.04040465890625,409) translate(88.375 14.4)"/><use xlink:href="#K" transform="matrix(1,0,0,1,235.04040465890625,409) translate(54.075 36)"/></g><path d="M120.5 531.43h61.8c6.62 0 12-5.37 12-12V372c0-6.63 5.37-12 12-12h45.9" stroke="#333" fill="none"/><path d="M120.5 531.93h-.53l.03-.5-.02-.5h.53" fill="#333"/><path d="M266.98 360l-14.27 4.64v-9.28z" stroke="#333" fill="#333"/><path d="M81.38 1023.6H61.63c-.9 0-1.63-.74-1.63-1.63v-2.42c0-9.03 5.94-16.6 14.75-18.73.4-.1.8-.05 1.16.16 2.6 1.4 5.42 1.4 8 0 .4-.2.76-.26 1.17-.16 2.3.57 4.22 1.4 6.2 2.7l-1.82 2.7c-1.47-.95-2.85-1.6-4.57-2.05-3.28 1.5-6.66 1.5-9.94 0-7.03 1.96-11.7 8.1-11.7 15.38v.8H81.4z" stroke="#fff" stroke-opacity="0" fill="#666"/><path d="M79.9 1005.2c-5.9 0-10.65-4.77-10.65-10.63 0-5.86 4.76-10.62 10.64-10.62 5.86-.06 10.65 4.65 10.7 10.5.06 4.05-2 7.5-5.56 9.42-1.65.9-3.25 1.32-5.15 1.32zm0-18.02c-4.1 0-7.47 3.3-7.5 7.4 0 2.77 1.42 5.15 3.88 6.47 2.33 1.25 4.9 1.25 7.22 0 2.48-1.34 3.9-3.76 3.87-6.6-.05-4.04-3.4-7.3-7.48-7.25zM134.6 1023.6h-19.75v-3.25H133v-.8c0-7.3-4.68-13.43-11.7-15.4-3.3 1.54-6.67 1.54-9.96 0-1.72.5-3.13 1.15-4.6 2.18l-1.85-2.67c1.96-1.37 3.87-2.24 6.2-2.83.4-.1.8-.05 1.18.16 2.57 1.38 5.42 1.38 8.02 0 .37-.22.75-.26 1.16-.17 8.8 2.12 14.75 9.7 14.75 18.73v2.4c0 .9-.7 1.6-1.6 1.63z" stroke="#fff" stroke-opacity="0" fill="#666"/><path d="M116.28 1005.2c-5.9 0-10.7-4.83-10.7-10.73s4.83-10.68 10.75-10.68 10.7 4.8 10.7 10.7c0 4.03-2.04 7.46-5.58 9.38-1.67.9-3.28 1.3-5.17 1.3zm0-18c-4.1-.03-7.44 3.26-7.46 7.37-.02 2.8 1.4 5.16 3.86 6.47 2.32 1.26 4.9 1.26 7.23 0 2.52-1.33 3.96-3.77 3.9-6.62-.07-4.06-3.44-7.3-7.52-7.23zM124 1060H72.15c-.88 0-1.6-.7-1.6-1.6v-3.45c-.05-12.47 8.2-22.95 20.32-25.9.44-.12.83-.05 1.2.13 3.87 2.08 8.1 2.08 12 0 .35-.18.73-.25 1.17-.12 12.17 2.9 20.43 13.4 20.37 25.9v3.43c0 .9-.7 1.6-1.6 1.6zm-50.2-3.22h48.55v-1.83c0-10.73-6.93-19.75-17.34-22.54-4.56 2.2-9.35 2.2-13.92 0-10.4 2.8-17.3 11.82-17.3 22.55z" stroke="#fff" stroke-opacity="0" fill="#666"/><path d="M98.13 1033.94c-2.57 0-4.76-.56-7.04-1.78-7.08-3.87-9.68-12.7-5.82-19.78 3.88-7.06 12.73-9.65 19.83-5.8 7.07 3.87 9.67 12.7 5.82 19.78-1.4 2.57-3.24 4.4-5.8 5.8-2.26 1.22-4.45 1.78-7 1.78zm0-25.5c-4.24-.06-7.9 2.07-9.93 5.8-2.92 5.4-.94 12.15 4.47 15.1 3.5 1.86 7.36 1.86 10.86 0 3.77-2.05 5.93-5.7 5.87-9.94-.1-6.12-5.14-11.05-11.27-10.96z" stroke="#fff" stroke-opacity="0" fill="#666"/><path d="M135.05 1023.6H97.2c-.64 0-1.16-.53-1.16-1.18v-2.5c-.04-9.1 6-16.75 14.82-18.9.33-.1.6-.05.9.1 2.8 1.5 5.9 1.5 8.75 0 .25-.15.53-.2.85-.1 8.88 2.13 14.9 9.77 14.86 18.9v2.5c0 .65-.5 1.17-1.15 1.17zm-36.64-2.36h35.44v-1.33c0-7.82-5.06-14.4-12.65-16.44-3.35 1.6-6.84 1.6-10.17 0-7.6 2.04-12.62 8.62-12.62 16.45z" stroke="#fff" stroke-opacity="0" stroke-width=".73" fill="#fff" fill-opacity="0"/><path d="M99 1023.6H61.16c-.64 0-1.16-.53-1.16-1.18v-2.5c-.04-9.1 6-16.75 14.82-18.9.32-.1.6-.05.9.1 2.8 1.5 5.9 1.5 8.74 0 .24-.15.53-.2.85-.1 8.88 2.13 14.9 9.77 14.87 18.9v2.5c0 .65-.52 1.17-1.17 1.17zm-36.63-2.36H97.8v-1.33c0-7.82-5.06-14.4-12.65-16.44-3.34 1.6-6.83 1.6-10.17 0-7.6 2.04-12.6 8.62-12.6 16.45z" stroke="#fff" stroke-opacity="0" stroke-width=".73" fill="#fff" fill-opacity="0"/><path d="M120.5 531.43H168c6.63 0 12 5.37 12 12V568c0 6.63 5.37 12 12 12h31.62" stroke="#333" fill="none"/><path d="M120.5 531.93h-.53l.03-.5-.02-.5h.53" fill="#333"/><path d="M238.38 580l-14.26 4.64v-9.28z" stroke="#333" fill="#333"/><defs><path fill="#d86613" d="M205 0l-28-72H64L36 0H1l101-248h38L239 0h-34zm-38-99l-47-123c-12 45-31 82-46 123h93" id="L"/><path fill="#d86613" d="M84 4C-5 8 30-112 23-190h32v120c0 31 7 50 39 49 72-2 45-101 50-169h31l1 190h-30c-1-10 1-25-2-33-11 22-28 36-60 37" id="M"/><path fill="#d86613" d="M59-47c-2 24 18 29 38 22v24C64 9 27 4 27-40v-127H5v-23h24l9-43h21v43h35v23H59v120" id="N"/><path fill="#d86613" d="M100-194c62-1 85 37 85 99 1 63-27 99-86 99S16-35 15-95c0-66 28-99 85-99zM99-20c44 1 53-31 53-75 0-43-8-75-51-75s-53 32-53 75 10 74 51 75" id="O"/><g id="a"><use transform="matrix(0.05,0,0,0.05,0,0)" xlink:href="#L"/><use transform="matrix(0.05,0,0,0.05,12,0)" xlink:href="#M"/><use transform="matrix(0.05,0,0,0.05,22,0)" xlink:href="#N"/><use transform="matrix(0.05,0,0,0.05,27,0)" xlink:href="#O"/></g><path fill="#d86613" d="M185-189c-5-48-123-54-124 2 14 75 158 14 163 119 3 78-121 87-175 55-17-10-28-26-33-46l33-7c5 56 141 63 141-1 0-78-155-14-162-118-5-82 145-84 179-34 5 7 8 16 11 25" id="P"/><path fill="#d86613" d="M96-169c-40 0-48 33-48 73s9 75 48 75c24 0 41-14 43-38l32 2c-6 37-31 61-74 61-59 0-76-41-82-99-10-93 101-131 147-64 4 7 5 14 7 22l-32 3c-4-21-16-35-41-35" id="Q"/><path fill="#d86613" d="M141-36C126-15 110 5 73 4 37 3 15-17 15-53c-1-64 63-63 125-63 3-35-9-54-41-54-24 1-41 7-42 31l-33-3c5-37 33-52 76-52 45 0 72 20 72 64v82c-1 20 7 32 28 27v20c-31 9-61-2-59-35zM48-53c0 20 12 33 32 33 41-3 63-29 60-74-43 2-92-5-92 41" id="R"/><path fill="#d86613" d="M24 0v-261h32V0H24" id="S"/><path fill="#d86613" d="M24-231v-30h32v30H24zM24 0v-190h32V0H24" id="T"/><path fill="#d86613" d="M117-194c89-4 53 116 60 194h-32v-121c0-31-8-49-39-48C34-167 62-67 57 0H25l-1-190h30c1 10-1 24 2 32 11-22 29-35 61-36" id="U"/><path fill="#d86613" d="M177-190C167-65 218 103 67 71c-23-6-38-20-44-43l32-5c15 47 100 32 89-28v-30C133-14 115 1 83 1 29 1 15-40 15-95c0-56 16-97 71-98 29-1 48 16 59 35 1-10 0-23 2-32h30zM94-22c36 0 50-32 50-73 0-42-14-75-50-75-39 0-46 34-46 75s6 73 46 73" id="V"/><g id="b"><use transform="matrix(0.05,0,0,0.05,0,0)" xlink:href="#P"/><use transform="matrix(0.05,0,0,0.05,12,0)" xlink:href="#Q"/><use transform="matrix(0.05,0,0,0.05,21,0)" xlink:href="#R"/><use transform="matrix(0.05,0,0,0.05,31,0)" xlink:href="#S"/><use transform="matrix(0.05,0,0,0.05,34.95,0)" xlink:href="#T"/><use transform="matrix(0.05,0,0,0.05,38.900000000000006,0)" xlink:href="#U"/><use transform="matrix(0.05,0,0,0.05,48.900000000000006,0)" xlink:href="#V"/></g><path fill="#666" d="M199 0l-22-63H83L61 0H9l90-248h61L250 0h-51zm-33-102l-36-108c-10 38-24 72-36 108h72" id="W"/><path fill="#666" d="M128 0H69L1-190h53L99-40l48-150h52" id="X"/><path fill="#666" d="M133-34C117-15 103 5 69 4 32 3 11-16 11-54c-1-60 55-63 116-61 1-26-3-47-28-47-18 1-26 9-28 27l-52-2c7-38 36-58 82-57s74 22 75 68l1 82c-1 14 12 18 25 15v27c-30 8-71 5-69-32zm-48 3c29 0 43-24 42-57-32 0-66-3-65 30 0 17 8 27 23 27" id="Y"/><path fill="#666" d="M25-224v-37h50v37H25zM25 0v-190h50V0H25" id="Z"/><path fill="#666" d="M25 0v-261h50V0H25" id="aa"/><path fill="#666" d="M135-194c52 0 70 43 70 98 0 56-19 99-73 100-30 1-46-15-58-35L72 0H24l1-261h50v104c11-23 29-37 60-37zM114-30c31 0 40-27 40-66 0-37-7-63-39-63s-41 28-41 65c0 36 8 64 40 64" id="ab"/><path fill="#666" d="M115-3C79 11 28 4 28-45v-112H4v-33h27l15-45h31v45h36v33H77v99c-1 23 16 31 38 25v30" id="ac"/><path fill="#666" d="M123 10C108 53 80 86 19 72V37c35 8 53-11 59-39L3-190h52l48 148c12-52 28-100 44-148h51" id="ad"/><g id="c"><use transform="matrix(0.04938271604938272,0,0,0.04938271604938272,0,0)" xlink:href="#W"/><use transform="matrix(0.04938271604938272,0,0,0.04938271604938272,12.14814814814815,0)" xlink:href="#X"/><use transform="matrix(0.04938271604938272,0,0,0.04938271604938272,22.024691358024697,0)" xlink:href="#Y"/><use transform="matrix(0.04938271604938272,0,0,0.04938271604938272,31.90123456790124,0)" xlink:href="#Z"/><use transform="matrix(0.04938271604938272,0,0,0.04938271604938272,36.83950617283951,0)" xlink:href="#aa"/><use transform="matrix(0.04938271604938272,0,0,0.04938271604938272,41.777777777777786,0)" xlink:href="#Y"/><use transform="matrix(0.04938271604938272,0,0,0.04938271604938272,51.65432098765432,0)" xlink:href="#ab"/><use transform="matrix(0.04938271604938272,0,0,0.04938271604938272,62.469135802469154,0)" xlink:href="#Z"/><use transform="matrix(0.04938271604938272,0,0,0.04938271604938272,67.40740740740742,0)" xlink:href="#aa"/><use transform="matrix(0.04938271604938272,0,0,0.04938271604938272,72.3456790123457,0)" xlink:href="#Z"/><use transform="matrix(0.04938271604938272,0,0,0.04938271604938272,77.28395061728398,0)" xlink:href="#ac"/><use transform="matrix(0.04938271604938272,0,0,0.04938271604938272,83.16049382716052,0)" xlink:href="#ad"/></g><path fill="#666" d="M210 0H11v-37l134-170H24v-41h178v36L68-41h142V0" id="ae"/><path fill="#666" d="M110-194c64 0 96 36 96 99 0 64-35 99-97 99-61 0-95-36-95-99 0-62 34-99 96-99zm-1 164c35 0 45-28 45-65 0-40-10-65-43-65-34 0-45 26-45 65 0 36 10 65 43 65" id="af"/><path fill="#666" d="M135-194c87-1 58 113 63 194h-50c-7-57 23-157-34-157-59 0-34 97-39 157H25l-1-190h47c2 12-1 28 3 38 12-26 28-41 61-42" id="ag"/><path fill="#666" d="M185-48c-13 30-37 53-82 52C43 2 14-33 14-96s30-98 90-98c62 0 83 45 84 108H66c0 31 8 55 39 56 18 0 30-7 34-22zm-45-69c5-46-57-63-70-21-2 6-4 13-4 21h74" id="ah"/><g id="d"><use transform="matrix(0.04938271604938272,0,0,0.04938271604938272,0,0)" xlink:href="#ae"/><use transform="matrix(0.04938271604938272,0,0,0.04938271604938272,10.814814814814815,0)" xlink:href="#af"/><use transform="matrix(0.04938271604938272,0,0,0.04938271604938272,21.62962962962963,0)" xlink:href="#ag"/><use transform="matrix(0.04938271604938272,0,0,0.04938271604938272,32.44444444444444,0)" xlink:href="#ah"/></g><use transform="matrix(0.04938271604938272,0,0,0.04938271604938272,0,0)" xlink:href="#W" id="e"/><path fill="#666" d="M182-130c37 4 62 22 62 59C244 23 116-4 24 0v-248c84 5 203-23 205 63 0 31-19 50-47 55zM76-148c40-3 101 13 101-30 0-44-60-28-101-31v61zm0 110c48-3 116 14 116-37 0-48-69-32-116-35v72" id="ai"/><use transform="matrix(0.04938271604938272,0,0,0.04938271604938272,0,0)" xlink:href="#ai" id="f"/><path fill="#666" d="M30-248c87 1 191-15 191 75 0 78-77 80-158 76V0H30v-248zm33 125c57 0 124 11 124-50 0-59-68-47-124-48v98" id="aj"/><path fill="#666" d="M84 4C-5 8 30-112 23-190h32v120c0 31 7 50 39 49 72-2 45-101 50-169h31l1 190h-30c-1-10 1-25-2-33-11 22-28 36-60 37" id="ak"/><path fill="#666" d="M115-194c53 0 69 39 70 98 0 66-23 100-70 100C84 3 66-7 56-30L54 0H23l1-261h32v101c10-23 28-34 59-34zm-8 174c40 0 45-34 45-75 0-40-5-75-45-74-42 0-51 32-51 76 0 43 10 73 51 73" id="al"/><path fill="#666" d="M24 0v-261h32V0H24" id="am"/><path fill="#666" d="M24-231v-30h32v30H24zM24 0v-190h32V0H24" id="an"/><path fill="#666" d="M96-169c-40 0-48 33-48 73s9 75 48 75c24 0 41-14 43-38l32 2c-6 37-31 61-74 61-59 0-76-41-82-99-10-93 101-131 147-64 4 7 5 14 7 22l-32 3c-4-21-16-35-41-35" id="ao"/><g id="g"><use transform="matrix(0.04938271604938272,0,0,0.04938271604938272,0,0)" xlink:href="#aj"/><use transform="matrix(0.04938271604938272,0,0,0.04938271604938272,11.851851851851853,0)" xlink:href="#ak"/><use transform="matrix(0.04938271604938272,0,0,0.04938271604938272,21.7283950617284,0)" xlink:href="#al"/><use transform="matrix(0.04938271604938272,0,0,0.04938271604938272,31.60493827160494,0)" xlink:href="#am"/><use transform="matrix(0.04938271604938272,0,0,0.04938271604938272,35.50617283950618,0)" xlink:href="#an"/><use transform="matrix(0.04938271604938272,0,0,0.04938271604938272,39.40740740740741,0)" xlink:href="#ao"/></g><path fill="#666" d="M185-189c-5-48-123-54-124 2 14 75 158 14 163 119 3 78-121 87-175 55-17-10-28-26-33-46l33-7c5 56 141 63 141-1 0-78-155-14-162-118-5-82 145-84 179-34 5 7 8 16 11 25" id="ap"/><path fill="#666" d="M117-194c89-4 53 116 60 194h-32v-121c0-31-8-49-39-48C34-167 62-67 57 0H25l-1-190h30c1 10-1 24 2 32 11-22 29-35 61-36" id="aq"/><path fill="#666" d="M100-194c63 0 86 42 84 106H49c0 40 14 67 53 68 26 1 43-12 49-29l28 8c-11 28-37 45-77 45C44 4 14-33 15-96c1-61 26-98 85-98zm52 81c6-60-76-77-97-28-3 7-6 17-6 28h103" id="ar"/><path fill="#666" d="M59-47c-2 24 18 29 38 22v24C64 9 27 4 27-40v-127H5v-23h24l9-43h21v43h35v23H59v120" id="as"/><g id="h"><use transform="matrix(0.04938271604938272,0,0,0.04938271604938272,0,0)" xlink:href="#ap"/><use transform="matrix(0.04938271604938272,0,0,0.04938271604938272,11.851851851851853,0)" xlink:href="#ak"/><use transform="matrix(0.04938271604938272,0,0,0.04938271604938272,21.7283950617284,0)" xlink:href="#al"/><use transform="matrix(0.04938271604938272,0,0,0.04938271604938272,31.60493827160494,0)" xlink:href="#aq"/><use transform="matrix(0.04938271604938272,0,0,0.04938271604938272,41.48148148148149,0)" xlink:href="#ar"/><use transform="matrix(0.04938271604938272,0,0,0.04938271604938272,51.35802469135803,0)" xlink:href="#as"/></g><path fill="#666" d="M27 0v-27h64v-190l-56 39v-29l58-41h29v221h61V0H27" id="at"/><use transform="matrix(0.04938271604938272,0,0,0.04938271604938272,0,0)" xlink:href="#at" id="i"/><path fill="#666" d="M114-163C36-179 61-72 57 0H25l-1-190h30c1 12-1 29 2 39 6-27 23-49 58-41v29" id="au"/><path fill="#666" d="M108 0H70L1-190h34L89-25l56-165h34" id="av"/><path fill="#666" d="M141-36C126-15 110 5 73 4 37 3 15-17 15-53c-1-64 63-63 125-63 3-35-9-54-41-54-24 1-41 7-42 31l-33-3c5-37 33-52 76-52 45 0 72 20 72 64v82c-1 20 7 32 28 27v20c-31 9-61-2-59-35zM48-53c0 20 12 33 32 33 41-3 63-29 60-74-43 2-92-5-92 41" id="aw"/><g id="j"><use transform="matrix(0.04938271604938272,0,0,0.04938271604938272,0,0)" xlink:href="#aj"/><use transform="matrix(0.04938271604938272,0,0,0.04938271604938272,11.851851851851853,0)" xlink:href="#au"/><use transform="matrix(0.04938271604938272,0,0,0.04938271604938272,17.728395061728396,0)" xlink:href="#an"/><use transform="matrix(0.04938271604938272,0,0,0.04938271604938272,21.62962962962963,0)" xlink:href="#av"/><use transform="matrix(0.04938271604938272,0,0,0.04938271604938272,30.518518518518523,0)" xlink:href="#aw"/><use transform="matrix(0.04938271604938272,0,0,0.04938271604938272,40.39506172839506,0)" xlink:href="#as"/><use transform="matrix(0.04938271604938272,0,0,0.04938271604938272,45.333333333333336,0)" xlink:href="#ar"/></g><path fill="#666" d="M101-251c82-7 93 87 43 132L82-64C71-53 59-42 53-27h129V0H18c2-99 128-94 128-182 0-28-16-43-45-43s-46 15-49 41l-32-3c6-41 34-60 81-64" id="ax"/><use transform="matrix(0.04938271604938272,0,0,0.04938271604938272,0,0)" xlink:href="#ax" id="k"/><path fill="#666" d="M147 0H94L2-248h55l64 206c17-72 42-137 63-206h54" id="ay"/><path fill="#666" d="M24-248c93 1 206-16 204 79-1 75-69 88-152 82V0H24v-248zm52 121c47 0 100 7 100-41 0-47-54-39-100-39v80" id="az"/><path fill="#666" d="M67-125c0 53 21 87 73 88 37 1 54-22 65-47l45 17C233-25 199 4 140 4 58 4 20-42 15-125 8-235 124-281 211-232c18 10 29 29 36 50l-46 12c-8-25-30-41-62-41-52 0-71 34-72 86" id="aA"/><g id="l"><use transform="matrix(0.04938271604938272,0,0,0.04938271604938272,0,0)" xlink:href="#ay"/><use transform="matrix(0.04938271604938272,0,0,0.04938271604938272,11.851851851851853,0)" xlink:href="#az"/><use transform="matrix(0.04938271604938272,0,0,0.04938271604938272,23.703703703703706,0)" xlink:href="#aA"/></g><path fill="#666" d="M101-251c68 0 85 55 85 127S166 4 100 4C33 4 14-52 14-124c0-73 17-127 87-127zm-1 229c47 0 54-49 54-102s-4-102-53-102c-51 0-55 48-55 102 0 53 5 102 54 102" id="aB"/><path fill="#666" d="M33 0v-38h34V0H33" id="aC"/><path fill="#666" d="M0 4l72-265h28L28 4H0" id="aD"/><path fill="#666" d="M110-160c48 1 74 30 74 79 0 53-28 85-80 85-65 0-83-55-86-122-5-90 50-162 133-122 14 7 22 21 27 39l-31 6c-5-40-67-38-82-6-9 19-15 44-15 74 11-20 30-34 60-33zm-7 138c34 0 49-23 49-58s-16-56-50-56c-29 0-50 16-49 49 1 36 15 65 50 65" id="aE"/><g id="m"><use transform="matrix(0.04320987654320988,0,0,0.04320987654320988,0,0)" xlink:href="#at"/><use transform="matrix(0.04320987654320988,0,0,0.04320987654320988,8.641975308641976,0)" xlink:href="#aB"/><use transform="matrix(0.04320987654320988,0,0,0.04320987654320988,17.283950617283953,0)" xlink:href="#aC"/><use transform="matrix(0.04320987654320988,0,0,0.04320987654320988,21.60493827160494,0)" xlink:href="#aB"/><use transform="matrix(0.04320987654320988,0,0,0.04320987654320988,30.24691358024692,0)" xlink:href="#aC"/><use transform="matrix(0.04320987654320988,0,0,0.04320987654320988,34.567901234567906,0)" xlink:href="#aB"/><use transform="matrix(0.04320987654320988,0,0,0.04320987654320988,43.20987654320988,0)" xlink:href="#aC"/><use transform="matrix(0.04320987654320988,0,0,0.04320987654320988,47.53086419753087,0)" xlink:href="#aB"/><use transform="matrix(0.04320987654320988,0,0,0.04320987654320988,56.17283950617284,0)" xlink:href="#aD"/><use transform="matrix(0.04320987654320988,0,0,0.04320987654320988,60.49382716049384,0)" xlink:href="#at"/><use transform="matrix(0.04320987654320988,0,0,0.04320987654320988,69.13580246913581,0)" xlink:href="#aE"/></g><path fill="#666" d="M275 0h-61l-44-196L126 0H64L0-248h53L97-49l45-199h58l43 199 44-199h52" id="aF"/><path fill="#666" d="M169-182c-1-43-94-46-97-3 18 66 151 10 154 114 3 95-165 93-204 36-6-8-10-19-12-30l50-8c3 46 112 56 116 5-17-69-150-10-154-114-4-87 153-88 188-35 5 8 8 18 10 28" id="aG"/><g id="n"><use transform="matrix(0.04938271604938272,0,0,0.04938271604938272,0,0)" xlink:href="#W"/><use transform="matrix(0.04938271604938272,0,0,0.04938271604938272,11.80246913580247,0)" xlink:href="#aF"/><use transform="matrix(0.04938271604938272,0,0,0.04938271604938272,28.543209876543205,0)" xlink:href="#aG"/></g><path fill="#666" d="M85 4C-2 5 27-109 22-190h50c7 57-23 150 33 157 60-5 35-97 40-157h50l1 190h-47c-2-12 1-28-3-38-12 25-28 42-61 42" id="aH"/><path fill="#666" d="M88-194c31-1 46 15 58 34l-1-101h50l1 261h-48c-2-10 0-23-3-31C134-8 116 4 84 4 32 4 16-41 15-95c0-56 19-97 73-99zm17 164c33 0 40-30 41-66 1-37-9-64-41-64s-38 30-39 65c0 43 13 65 39 65" id="aI"/><g id="o"><use transform="matrix(0.04938271604938272,0,0,0.04938271604938272,0,0)" xlink:href="#aA"/><use transform="matrix(0.04938271604938272,0,0,0.04938271604938272,12.790123456790125,0)" xlink:href="#aa"/><use transform="matrix(0.04938271604938272,0,0,0.04938271604938272,17.7283950617284,0)" xlink:href="#af"/><use transform="matrix(0.04938271604938272,0,0,0.04938271604938272,28.54320987654322,0)" xlink:href="#aH"/><use transform="matrix(0.04938271604938272,0,0,0.04938271604938272,39.35802469135803,0)" xlink:href="#aI"/></g><path fill="#666" d="M33 0v-248h34V0H33" id="aJ"/><g id="p"><use transform="matrix(0.04938271604938272,0,0,0.04938271604938272,0,0)" xlink:href="#aJ"/><use transform="matrix(0.04938271604938272,0,0,0.04938271604938272,4.938271604938272,0)" xlink:href="#aq"/><use transform="matrix(0.04938271604938272,0,0,0.04938271604938272,14.814814814814817,0)" xlink:href="#as"/><use transform="matrix(0.04938271604938272,0,0,0.04938271604938272,19.75308641975309,0)" xlink:href="#ar"/><use transform="matrix(0.04938271604938272,0,0,0.04938271604938272,29.629629629629633,0)" xlink:href="#au"/><use transform="matrix(0.04938271604938272,0,0,0.04938271604938272,35.50617283950618,0)" xlink:href="#aq"/><use transform="matrix(0.04938271604938272,0,0,0.04938271604938272,45.38271604938272,0)" xlink:href="#ar"/><use transform="matrix(0.04938271604938272,0,0,0.04938271604938272,55.25925925925927,0)" xlink:href="#as"/></g><path fill="#666" d="M143 4C61 4 22-44 18-125c-5-107 100-154 193-111 17 8 29 25 37 43l-32 9c-13-25-37-40-76-40-61 0-88 39-88 99 0 61 29 100 91 101 35 0 62-11 79-27v-45h-74v-28h105v86C228-13 192 4 143 4" id="aK"/><path fill="#666" d="M206 0h-36l-40-164L89 0H53L-1-190h32L70-26l43-164h34l41 164 42-164h31" id="aL"/><path fill="#666" d="M179-190L93 31C79 59 56 82 12 73V49c39 6 53-20 64-50L1-190h34L92-34l54-156h33" id="aM"/><g id="q"><use transform="matrix(0.04938271604938272,0,0,0.04938271604938272,0,0)" xlink:href="#aK"/><use transform="matrix(0.04938271604938272,0,0,0.04938271604938272,13.827160493827162,0)" xlink:href="#aw"/><use transform="matrix(0.04938271604938272,0,0,0.04938271604938272,23.703703703703706,0)" xlink:href="#as"/><use transform="matrix(0.04938271604938272,0,0,0.04938271604938272,28.641975308641978,0)" xlink:href="#ar"/><use transform="matrix(0.04938271604938272,0,0,0.04938271604938272,38.51851851851852,0)" xlink:href="#aL"/><use transform="matrix(0.04938271604938272,0,0,0.04938271604938272,51.308641975308646,0)" xlink:href="#aw"/><use transform="matrix(0.04938271604938272,0,0,0.04938271604938272,61.18518518518519,0)" xlink:href="#aM"/></g><path fill="#a9afb8" d="M136-208V0H84v-208H4v-40h212v40h-80" id="aN"/><path fill="#a9afb8" d="M185-48c-13 30-37 53-82 52C43 2 14-33 14-96s30-98 90-98c62 0 83 45 84 108H66c0 31 8 55 39 56 18 0 30-7 34-22zm-45-69c5-46-57-63-70-21-2 6-4 13-4 21h74" id="aO"/><path fill="#a9afb8" d="M135-150c-39-12-60 13-60 57V0H25l-1-190h47c2 13-1 29 3 40 6-28 27-53 61-41v41" id="aP"/><path fill="#a9afb8" d="M133-34C117-15 103 5 69 4 32 3 11-16 11-54c-1-60 55-63 116-61 1-26-3-47-28-47-18 1-26 9-28 27l-52-2c7-38 36-58 82-57s74 22 75 68l1 82c-1 14 12 18 25 15v27c-30 8-71 5-69-32zm-48 3c29 0 43-24 42-57-32 0-66-3-65 30 0 17 8 27 23 27" id="aQ"/><path fill="#a9afb8" d="M121-226c-27-7-43 5-38 36h38v33H83V0H34v-157H6v-33h28c-9-59 32-81 87-68v32" id="aR"/><path fill="#a9afb8" d="M110-194c64 0 96 36 96 99 0 64-35 99-97 99-61 0-95-36-95-99 0-62 34-99 96-99zm-1 164c35 0 45-28 45-65 0-40-10-65-43-65-34 0-45 26-45 65 0 36 10 65 43 65" id="aS"/><path fill="#a9afb8" d="M220-157c-53 9-28 100-34 157h-49v-107c1-27-5-49-29-50C55-147 81-57 75 0H25l-1-190h47c2 12-1 28 3 38 10-53 101-56 108 0 13-22 24-43 59-42 82 1 51 116 57 194h-49v-107c-1-25-5-48-29-50" id="aT"/><path fill="#a9afb8" d="M14-72v-43h91v43H14" id="aU"/><path fill="#a9afb8" d="M67-125c0 53 21 87 73 88 37 1 54-22 65-47l45 17C233-25 199 4 140 4 58 4 20-42 15-125 8-235 124-281 211-232c18 10 29 29 36 50l-46 12c-8-25-30-41-62-41-52 0-71 34-72 86" id="aV"/><path fill="#a9afb8" d="M25-224v-37h50v37H25zM25 0v-190h50V0H25" id="aW"/><path fill="#a9afb8" d="M190-63c-7 42-38 67-86 67-59 0-84-38-90-98-12-110 154-137 174-36l-49 2c-2-19-15-32-35-32-30 0-35 28-38 64-6 74 65 87 74 30" id="aX"/><path fill="#a9afb8" d="M25 0v-261h50V0H25" id="aY"/><path fill="#a9afb8" d="M24 0v-248h52V0H24" id="aZ"/><path fill="#a9afb8" d="M199 0l-22-63H83L61 0H9l90-248h61L250 0h-51zm-33-102l-36-108c-10 38-24 72-36 108h72" id="ba"/><path fill="#a9afb8" d="M275 0h-61l-44-196L126 0H64L0-248h53L97-49l45-199h58l43 199 44-199h52" id="bb"/><path fill="#a9afb8" d="M169-182c-1-43-94-46-97-3 18 66 151 10 154 114 3 95-165 93-204 36-6-8-10-19-12-30l50-8c3 46 112 56 116 5-17-69-150-10-154-114-4-87 153-88 188-35 5 8 8 18 10 28" id="bc"/><path fill="#a9afb8" d="M67-125c0 54 23 88 75 88 28 0 53-7 68-21v-34h-60v-39h108v91C232-14 192 4 140 4 58 4 20-42 15-125 8-236 126-280 215-234c19 10 29 26 37 47l-47 15c-11-23-29-39-63-39-53 1-75 33-75 86" id="bd"/><g id="r"><use transform="matrix(0.0728395061728395,0,0,0.0728395061728395,0,0)" xlink:href="#aN"/><use transform="matrix(0.0728395061728395,0,0,0.0728395061728395,13.985185185185184,0)" xlink:href="#aO"/><use transform="matrix(0.0728395061728395,0,0,0.0728395061728395,28.553086419753086,0)" xlink:href="#aP"/><use transform="matrix(0.0728395061728395,0,0,0.0728395061728395,38.75061728395062,0)" xlink:href="#aP"/><use transform="matrix(0.0728395061728395,0,0,0.0728395061728395,48.94814814814815,0)" xlink:href="#aQ"/><use transform="matrix(0.0728395061728395,0,0,0.0728395061728395,63.51604938271605,0)" xlink:href="#aR"/><use transform="matrix(0.0728395061728395,0,0,0.0728395061728395,72.18395061728395,0)" xlink:href="#aS"/><use transform="matrix(0.0728395061728395,0,0,0.0728395061728395,88.13580246913581,0)" xlink:href="#aP"/><use transform="matrix(0.0728395061728395,0,0,0.0728395061728395,98.33333333333334,0)" xlink:href="#aT"/><use transform="matrix(0.0728395061728395,0,0,0.0728395061728395,121.64197530864199,0)" xlink:href="#aU"/><use transform="matrix(0.0728395061728395,0,0,0.0728395061728395,130.3098765432099,0)" xlink:href="#aV"/><use transform="matrix(0.0728395061728395,0,0,0.0728395061728395,149.17530864197533,0)" xlink:href="#aW"/><use transform="matrix(0.0728395061728395,0,0,0.0728395061728395,156.45925925925928,0)" xlink:href="#aP"/><use transform="matrix(0.0728395061728395,0,0,0.0728395061728395,166.6567901234568,0)" xlink:href="#aX"/><use transform="matrix(0.0728395061728395,0,0,0.0728395061728395,181.2246913580247,0)" xlink:href="#aY"/><use transform="matrix(0.0728395061728395,0,0,0.0728395061728395,188.50864197530865,0)" xlink:href="#aO"/><use transform="matrix(0.0728395061728395,0,0,0.0728395061728395,203.07654320987655,0)" xlink:href="#aV"/><use transform="matrix(0.0728395061728395,0,0,0.0728395061728395,221.94197530864196,0)" xlink:href="#aZ"/><use transform="matrix(0.0728395061728395,0,0,0.0728395061728395,229.22592592592594,0)" xlink:href="#aU"/><use transform="matrix(0.0728395061728395,0,0,0.0728395061728395,237.89382716049383,0)" xlink:href="#ba"/><use transform="matrix(0.0728395061728395,0,0,0.0728395061728395,255.3024691358025,0)" xlink:href="#bb"/><use transform="matrix(0.0728395061728395,0,0,0.0728395061728395,279.99506172839506,0)" xlink:href="#bc"/><use transform="matrix(0.0728395061728395,0,0,0.0728395061728395,297.4765432098765,0)" xlink:href="#aU"/><use transform="matrix(0.0728395061728395,0,0,0.0728395061728395,306.14444444444445,0)" xlink:href="#ba"/><use transform="matrix(0.0728395061728395,0,0,0.0728395061728395,325.0098765432099,0)" xlink:href="#bc"/><use transform="matrix(0.0728395061728395,0,0,0.0728395061728395,342.49135802469135,0)" xlink:href="#bd"/></g><path fill="#a9afb8" d="M205 0l-28-72H64L36 0H1l101-248h38L239 0h-34zm-38-99l-47-123c-12 45-31 82-46 123h93" id="be"/><path fill="#a9afb8" d="M24 0v-261h32V0H24" id="bf"/><path fill="#a9afb8" d="M141-36C126-15 110 5 73 4 37 3 15-17 15-53c-1-64 63-63 125-63 3-35-9-54-41-54-24 1-41 7-42 31l-33-3c5-37 33-52 76-52 45 0 72 20 72 64v82c-1 20 7 32 28 27v20c-31 9-61-2-59-35zM48-53c0 20 12 33 32 33 41-3 63-29 60-74-43 2-92-5-92 41" id="bg"/><path fill="#a9afb8" d="M117-194c89-4 53 116 60 194h-32v-121c0-31-8-49-39-48C34-167 62-67 57 0H25l-1-190h30c1 10-1 24 2 32 11-22 29-35 61-36" id="bh"/><g id="s"><use transform="matrix(0.04248971193415638,0,0,0.04248971193415638,0,0)" xlink:href="#be"/><use transform="matrix(0.04248971193415638,0,0,0.04248971193415638,10.19753086419753,0)" xlink:href="#bf"/><use transform="matrix(0.04248971193415638,0,0,0.04248971193415638,13.554218106995881,0)" xlink:href="#bf"/><use transform="matrix(0.04248971193415638,0,0,0.04248971193415638,16.910905349794238,0)" xlink:href="#bg"/><use transform="matrix(0.04248971193415638,0,0,0.04248971193415638,25.408847736625507,0)" xlink:href="#bh"/></g><path fill="#a9afb8" d="M127-220V0H93v-220H8v-28h204v28h-85" id="bi"/><path fill="#a9afb8" d="M100-194c63 0 86 42 84 106H49c0 40 14 67 53 68 26 1 43-12 49-29l28 8c-11 28-37 45-77 45C44 4 14-33 15-96c1-61 26-98 85-98zm52 81c6-60-76-77-97-28-3 7-6 17-6 28h103" id="bj"/><path fill="#a9afb8" d="M24-231v-30h32v30H24zM24 0v-190h32V0H24" id="bk"/><path fill="#a9afb8" d="M135-143c-3-34-86-38-87 0 15 53 115 12 119 90S17 21 10-45l28-5c4 36 97 45 98 0-10-56-113-15-118-90-4-57 82-63 122-42 12 7 21 19 24 35" id="bl"/><path fill="#a9afb8" d="M100-194c62-1 85 37 85 99 1 63-27 99-86 99S16-35 15-95c0-66 28-99 85-99zM99-20c44 1 53-31 53-75 0-43-8-75-51-75s-53 32-53 75 10 74 51 75" id="bm"/><g id="t"><use transform="matrix(0.04248971193415638,0,0,0.04248971193415638,0,0)" xlink:href="#bi"/><use transform="matrix(0.04248971193415638,0,0,0.04248971193415638,7.605658436213991,0)" xlink:href="#bj"/><use transform="matrix(0.04248971193415638,0,0,0.04248971193415638,16.103600823045266,0)" xlink:href="#bh"/><use transform="matrix(0.04248971193415638,0,0,0.04248971193415638,24.60154320987654,0)" xlink:href="#bk"/><use transform="matrix(0.04248971193415638,0,0,0.04248971193415638,27.958230452674897,0)" xlink:href="#bl"/><use transform="matrix(0.04248971193415638,0,0,0.04248971193415638,35.60637860082304,0)" xlink:href="#bm"/><use transform="matrix(0.04248971193415638,0,0,0.04248971193415638,44.10432098765432,0)" xlink:href="#bh"/></g><path fill="#a9afb8" d="M32 76v-337h29V76H32" id="bn"/><use transform="matrix(0.04248971193415638,0,0,0.04248971193415638,0,0)" xlink:href="#bn" id="u"/><path fill="#a9afb8" d="M30-248c118-7 216 8 213 122C240-48 200 0 122 0H30v-248zM63-27c89 8 146-16 146-99s-60-101-146-95v194" id="bo"/><path fill="#a9afb8" d="M96-169c-40 0-48 33-48 73s9 75 48 75c24 0 41-14 43-38l32 2c-6 37-31 61-74 61-59 0-76-41-82-99-10-93 101-131 147-64 4 7 5 14 7 22l-32 3c-4-21-16-35-41-35" id="bp"/><path fill="#a9afb8" d="M210-169c-67 3-38 105-44 169h-31v-121c0-29-5-50-35-48C34-165 62-65 56 0H25l-1-190h30c1 10-1 24 2 32 10-44 99-50 107 0 11-21 27-35 58-36 85-2 47 119 55 194h-31v-121c0-29-5-49-35-48" id="bq"/><path fill="#a9afb8" d="M115-194c53 0 69 39 70 98 0 66-23 100-70 100C84 3 66-7 56-30L54 0H23l1-261h32v101c10-23 28-34 59-34zm-8 174c40 0 45-34 45-75 0-40-5-75-45-74-42 0-51 32-51 76 0 43 10 73 51 73" id="br"/><path fill="#a9afb8" d="M114-163C36-179 61-72 57 0H25l-1-190h30c1 12-1 29 2 39 6-27 23-49 58-41v29" id="bs"/><g id="v"><use transform="matrix(0.04248971193415638,0,0,0.04248971193415638,0,0)" xlink:href="#bo"/><use transform="matrix(0.04248971193415638,0,0,0.04248971193415638,11.004835390946502,0)" xlink:href="#bj"/><use transform="matrix(0.04248971193415638,0,0,0.04248971193415638,19.502777777777776,0)" xlink:href="#bp"/><use transform="matrix(0.04248971193415638,0,0,0.04248971193415638,27.150925925925925,0)" xlink:href="#bj"/><use transform="matrix(0.04248971193415638,0,0,0.04248971193415638,35.6488683127572,0)" xlink:href="#bq"/><use transform="matrix(0.04248971193415638,0,0,0.04248971193415638,48.35329218106995,0)" xlink:href="#br"/><use transform="matrix(0.04248971193415638,0,0,0.04248971193415638,56.851234567901244,0)" xlink:href="#bj"/><use transform="matrix(0.04248971193415638,0,0,0.04248971193415638,65.34917695473251,0)" xlink:href="#bs"/></g><path fill="#a9afb8" d="M134-131c28 9 52 24 51 62-1 50-34 73-85 73S17-19 16-69c0-36 21-54 49-61-75-25-45-126 34-121 46 3 78 18 79 63 0 33-17 51-44 57zm-34-11c31 1 46-15 46-44 0-28-17-43-47-42-29 0-46 13-45 42 1 28 16 44 46 44zm1 122c35 0 51-18 51-52 0-30-18-46-53-46-33 0-51 17-51 47 0 34 19 51 53 51" id="bt"/><path fill="#a9afb8" d="M68-38c1 34 0 65-14 84H32c9-13 17-26 17-46H33v-38h35" id="bu"/><g id="w"><use transform="matrix(0.04248971193415638,0,0,0.04248971193415638,0,0)" xlink:href="#bt"/><use transform="matrix(0.04248971193415638,0,0,0.04248971193415638,8.497942386831275,0)" xlink:href="#bu"/></g><path fill="#a9afb8" d="M101-251c82-7 93 87 43 132L82-64C71-53 59-42 53-27h129V0H18c2-99 128-94 128-182 0-28-16-43-45-43s-46 15-49 41l-32-3c6-41 34-60 81-64" id="bv"/><path fill="#a9afb8" d="M101-251c68 0 85 55 85 127S166 4 100 4C33 4 14-52 14-124c0-73 17-127 87-127zm-1 229c47 0 54-49 54-102s-4-102-53-102c-51 0-55 48-55 102 0 53 5 102 54 102" id="bw"/><path fill="#a9afb8" d="M27 0v-27h64v-190l-56 39v-29l58-41h29v221h61V0H27" id="bx"/><g id="x"><use transform="matrix(0.04248971193415638,0,0,0.04248971193415638,0,0)" xlink:href="#bv"/><use transform="matrix(0.04248971193415638,0,0,0.04248971193415638,8.497942386831275,0)" xlink:href="#bw"/><use transform="matrix(0.04248971193415638,0,0,0.04248971193415638,16.99588477366255,0)" xlink:href="#bv"/><use transform="matrix(0.04248971193415638,0,0,0.04248971193415638,25.493827160493822,0)" xlink:href="#bx"/></g><path fill="#333" d="M205 0l-28-72H64L36 0H1l101-248h38L239 0h-34zm-38-99l-47-123c-12 45-31 82-46 123h93" id="by"/><path fill="#333" d="M115-194c55 1 70 41 70 98S169 2 115 4C84 4 66-9 55-30l1 105H24l-1-265h31l2 30c10-21 28-34 59-34zm-8 174c40 0 45-34 45-75s-6-73-45-74c-42 0-51 32-51 76 0 43 10 73 51 73" id="bz"/><path fill="#333" d="M24 0v-261h32V0H24" id="bA"/><path fill="#333" d="M24-231v-30h32v30H24zM24 0v-190h32V0H24" id="bB"/><path fill="#333" d="M96-169c-40 0-48 33-48 73s9 75 48 75c24 0 41-14 43-38l32 2c-6 37-31 61-74 61-59 0-76-41-82-99-10-93 101-131 147-64 4 7 5 14 7 22l-32 3c-4-21-16-35-41-35" id="bC"/><path fill="#333" d="M141-36C126-15 110 5 73 4 37 3 15-17 15-53c-1-64 63-63 125-63 3-35-9-54-41-54-24 1-41 7-42 31l-33-3c5-37 33-52 76-52 45 0 72 20 72 64v82c-1 20 7 32 28 27v20c-31 9-61-2-59-35zM48-53c0 20 12 33 32 33 41-3 63-29 60-74-43 2-92-5-92 41" id="bD"/><path fill="#333" d="M59-47c-2 24 18 29 38 22v24C64 9 27 4 27-40v-127H5v-23h24l9-43h21v43h35v23H59v120" id="bE"/><path fill="#333" d="M100-194c62-1 85 37 85 99 1 63-27 99-86 99S16-35 15-95c0-66 28-99 85-99zM99-20c44 1 53-31 53-75 0-43-8-75-51-75s-53 32-53 75 10 74 51 75" id="bF"/><path fill="#333" d="M117-194c89-4 53 116 60 194h-32v-121c0-31-8-49-39-48C34-167 62-67 57 0H25l-1-190h30c1 10-1 24 2 32 11-22 29-35 61-36" id="bG"/><g id="y"><use transform="matrix(0.05,0,0,0.05,0,0)" xlink:href="#by"/><use transform="matrix(0.05,0,0,0.05,12,0)" xlink:href="#bz"/><use transform="matrix(0.05,0,0,0.05,22,0)" xlink:href="#bz"/><use transform="matrix(0.05,0,0,0.05,32,0)" xlink:href="#bA"/><use transform="matrix(0.05,0,0,0.05,35.95,0)" xlink:href="#bB"/><use transform="matrix(0.05,0,0,0.05,39.900000000000006,0)" xlink:href="#bC"/><use transform="matrix(0.05,0,0,0.05,48.900000000000006,0)" xlink:href="#bD"/><use transform="matrix(0.05,0,0,0.05,58.900000000000006,0)" xlink:href="#bE"/><use transform="matrix(0.05,0,0,0.05,63.900000000000006,0)" xlink:href="#bB"/><use transform="matrix(0.05,0,0,0.05,67.85000000000001,0)" xlink:href="#bF"/><use transform="matrix(0.05,0,0,0.05,77.85000000000001,0)" xlink:href="#bG"/></g><path fill="#333" d="M30 0v-248h33v221h125V0H30" id="bH"/><path fill="#333" d="M85-194c31 0 48 13 60 33l-1-100h32l1 261h-30c-2-10 0-23-3-31C134-8 116 4 85 4 32 4 16-35 15-94c0-66 23-100 70-100zm9 24c-40 0-46 34-46 75 0 40 6 74 45 74 42 0 51-32 51-76 0-42-9-74-50-73" id="bI"/><g id="z"><use transform="matrix(0.05,0,0,0.05,0,0)" xlink:href="#bH"/><use transform="matrix(0.05,0,0,0.05,10,0)" xlink:href="#bF"/><use transform="matrix(0.05,0,0,0.05,20,0)" xlink:href="#bD"/><use transform="matrix(0.05,0,0,0.05,30,0)" xlink:href="#bI"/></g><path fill="#333" d="M160-131c35 5 61 23 61 61C221 17 115-2 30 0v-248c76 3 177-17 177 60 0 33-19 50-47 57zm-97-11c50-1 110 9 110-42 0-47-63-36-110-37v79zm0 115c55-2 124 14 124-45 0-56-70-42-124-44v89" id="bJ"/><path fill="#333" d="M100-194c63 0 86 42 84 106H49c0 40 14 67 53 68 26 1 43-12 49-29l28 8c-11 28-37 45-77 45C44 4 14-33 15-96c1-61 26-98 85-98zm52 81c6-60-76-77-97-28-3 7-6 17-6 28h103" id="bK"/><path fill="#333" d="M114-163C36-179 61-72 57 0H25l-1-190h30c1 12-1 29 2 39 6-27 23-49 58-41v29" id="bL"/><g id="A"><use transform="matrix(0.05,0,0,0.05,0,0)" xlink:href="#bJ"/><use transform="matrix(0.05,0,0,0.05,12,0)" xlink:href="#bD"/><use transform="matrix(0.05,0,0,0.05,22,0)" xlink:href="#bA"/><use transform="matrix(0.05,0,0,0.05,25.950000000000003,0)" xlink:href="#bD"/><use transform="matrix(0.05,0,0,0.05,35.95,0)" xlink:href="#bG"/><use transform="matrix(0.05,0,0,0.05,45.95,0)" xlink:href="#bC"/><use transform="matrix(0.05,0,0,0.05,54.95,0)" xlink:href="#bK"/><use transform="matrix(0.05,0,0,0.05,64.95,0)" xlink:href="#bL"/></g><path fill="#333" d="M266 0h-40l-56-210L115 0H75L2-248h35L96-30l15-64 43-154h32l59 218 59-218h35" id="bM"/><path fill="#333" d="M115-194c53 0 69 39 70 98 0 66-23 100-70 100C84 3 66-7 56-30L54 0H23l1-261h32v101c10-23 28-34 59-34zm-8 174c40 0 45-34 45-75 0-40-5-75-45-74-42 0-51 32-51 76 0 43 10 73 51 73" id="bN"/><g id="B"><use transform="matrix(0.05,0,0,0.05,0,0)" xlink:href="#bM"/><use transform="matrix(0.05,0,0,0.05,16.599999999999998,0)" xlink:href="#bK"/><use transform="matrix(0.05,0,0,0.05,26.599999999999994,0)" xlink:href="#bN"/></g><path fill="#333" d="M27 0v-27h64v-190l-56 39v-29l58-41h29v221h61V0H27" id="bO"/><use transform="matrix(0.05,0,0,0.05,0,0)" xlink:href="#bO" id="C"/><path fill="#333" d="M101-251c82-7 93 87 43 132L82-64C71-53 59-42 53-27h129V0H18c2-99 128-94 128-182 0-28-16-43-45-43s-46 15-49 41l-32-3c6-41 34-60 81-64" id="bP"/><use transform="matrix(0.05,0,0,0.05,0,0)" xlink:href="#bP" id="D"/><path fill="#333" d="M30-248c118-7 216 8 213 122C240-48 200 0 122 0H30v-248zM63-27c89 8 146-16 146-99s-60-101-146-95v194" id="bQ"/><path fill="#333" d="M135-143c-3-34-86-38-87 0 15 53 115 12 119 90S17 21 10-45l28-5c4 36 97 45 98 0-10-56-113-15-118-90-4-57 82-63 122-42 12 7 21 19 24 35" id="bR"/><g id="F"><use transform="matrix(0.05,0,0,0.05,0,0)" xlink:href="#bQ"/><use transform="matrix(0.05,0,0,0.05,12.950000000000001,0)" xlink:href="#bD"/><use transform="matrix(0.05,0,0,0.05,22.950000000000003,0)" xlink:href="#bE"/><use transform="matrix(0.05,0,0,0.05,27.950000000000003,0)" xlink:href="#bD"/><use transform="matrix(0.05,0,0,0.05,37.95,0)" xlink:href="#bN"/><use transform="matrix(0.05,0,0,0.05,47.95,0)" xlink:href="#bD"/><use transform="matrix(0.05,0,0,0.05,57.95,0)" xlink:href="#bR"/><use transform="matrix(0.05,0,0,0.05,66.95,0)" xlink:href="#bK"/></g><filter id="E" filterUnits="objectBoundingBox" x="-.05" y="-.04" width="1.11" height="1.11"><feOffset result="offOut" in="SourceAlpha" dy="2"/><feGaussianBlur result="blurOut" in="offOut" stdDeviation="3.5"/><feColorMatrix result="colorOut" in="blurOut" values="0 0 0 0 0 0 0 0 0 0 0 0 0 0 0 0 0 0 0.5019607843137255 0"/><feBlend in="SourceGraphic" in2="colorOut"/></filter><path fill="#333" d="M143 4C61 4 22-44 18-125c-5-107 100-154 193-111 17 8 29 25 37 43l-32 9c-13-25-37-40-76-40-61 0-88 39-88 99 0 61 29 100 91 101 35 0 62-11 79-27v-45h-74v-28h105v86C228-13 192 4 143 4" id="bS"/><path fill="#333" d="M197 0v-115H63V0H30v-248h33v105h134v-105h34V0h-34" id="bT"/><path fill="#333" d="M84 4C-5 8 30-112 23-190h32v120c0 31 7 50 39 49 72-2 45-101 50-169h31l1 190h-30c-1-10 1-25-2-33-11 22-28 36-60 37" id="bU"/><g id="G"><use transform="matrix(0.05,0,0,0.05,0,0)" xlink:href="#bS"/><use transform="matrix(0.05,0,0,0.05,14,0)" xlink:href="#bB"/><use transform="matrix(0.05,0,0,0.05,17.95,0)" xlink:href="#bE"/><use transform="matrix(0.05,0,0,0.05,22.95,0)" xlink:href="#bT"/><use transform="matrix(0.05,0,0,0.05,35.9,0)" xlink:href="#bU"/><use transform="matrix(0.05,0,0,0.05,45.9,0)" xlink:href="#bN"/></g><path fill="#333" d="M212-179c-10-28-35-45-73-45-59 0-87 40-87 99 0 60 29 101 89 101 43 0 62-24 78-52l27 14C228-24 195 4 139 4 59 4 22-46 18-125c-6-104 99-153 187-111 19 9 31 26 39 46" id="bV"/><path fill="#333" d="M33 0v-248h34V0H33" id="bW"/><g id="H"><use transform="matrix(0.05,0,0,0.05,0,0)" xlink:href="#bV"/><use transform="matrix(0.05,0,0,0.05,12.950000000000001,0)" xlink:href="#bB"/><use transform="matrix(0.05,0,0,0.05,16.900000000000002,0)" xlink:href="#bL"/><use transform="matrix(0.05,0,0,0.05,22.85,0)" xlink:href="#bC"/><use transform="matrix(0.05,0,0,0.05,31.85,0)" xlink:href="#bA"/><use transform="matrix(0.05,0,0,0.05,35.800000000000004,0)" xlink:href="#bK"/><use transform="matrix(0.05,0,0,0.05,45.800000000000004,0)" xlink:href="#bV"/><use transform="matrix(0.05,0,0,0.05,58.75,0)" xlink:href="#bW"/></g><path fill="#333" d="M127-220V0H93v-220H8v-28h204v28h-85" id="bX"/><path fill="#333" d="M101-234c-31-9-42 10-38 44h38v23H63V0H32v-167H5v-23h27c-7-52 17-82 69-68v24" id="bY"/><path fill="#333" d="M210-169c-67 3-38 105-44 169h-31v-121c0-29-5-50-35-48C34-165 62-65 56 0H25l-1-190h30c1 10-1 24 2 32 10-44 99-50 107 0 11-21 27-35 58-36 85-2 47 119 55 194h-31v-121c0-29-5-49-35-48" id="bZ"/><g id="I"><use transform="matrix(0.05,0,0,0.05,0,0)" xlink:href="#bX"/><use transform="matrix(0.05,0,0,0.05,8.950000000000001,0)" xlink:href="#bK"/><use transform="matrix(0.05,0,0,0.05,18.950000000000003,0)" xlink:href="#bL"/><use transform="matrix(0.05,0,0,0.05,24.900000000000002,0)" xlink:href="#bL"/><use transform="matrix(0.05,0,0,0.05,30.85,0)" xlink:href="#bD"/><use transform="matrix(0.05,0,0,0.05,40.85,0)" xlink:href="#bY"/><use transform="matrix(0.05,0,0,0.05,45.85,0)" xlink:href="#bF"/><use transform="matrix(0.05,0,0,0.05,55.85,0)" xlink:href="#bL"/><use transform="matrix(0.05,0,0,0.05,61.800000000000004,0)" xlink:href="#bZ"/></g><path fill="#333" d="M185-189c-5-48-123-54-124 2 14 75 158 14 163 119 3 78-121 87-175 55-17-10-28-26-33-46l33-7c5 56 141 63 141-1 0-78-155-14-162-118-5-82 145-84 179-34 5 7 8 16 11 25" id="ca"/><g id="J"><use transform="matrix(0.05,0,0,0.05,0,0)" xlink:href="#ca"/><use transform="matrix(0.05,0,0,0.05,12,0)" xlink:href="#bE"/><use transform="matrix(0.05,0,0,0.05,17,0)" xlink:href="#bD"/><use transform="matrix(0.05,0,0,0.05,27,0)" xlink:href="#bE"/><use transform="matrix(0.05,0,0,0.05,32,0)" xlink:href="#bK"/></g><path fill="#333" d="M63-220v92h138v28H63V0H30v-248h175v28H63" id="cb"/><g id="K"><use transform="matrix(0.05,0,0,0.05,0,0)" xlink:href="#cb"/><use transform="matrix(0.05,0,0,0.05,10.950000000000001,0)" xlink:href="#bB"/><use transform="matrix(0.05,0,0,0.05,14.9,0)" xlink:href="#bA"/><use transform="matrix(0.05,0,0,0.05,18.85,0)" xlink:href="#bK"/></g></defs></g></svg>